<?xml version="1.0" encoding="UTF-8" standalone="no"?><svg xmlns="http://www.w3.org/2000/svg" xmlns:xlink="http://www.w3.org/1999/xlink" contentScriptType="application/ecmascript" contentStyleType="text/css" height="524px" preserveAspectRatio="none" style="width:1567px;height:524px;" version="1.1" viewBox="0 0 1567 524" width="1567px" zoomAndPan="magnify"><defs><filter height="300%" id="f3ju89sxf85ms" width="300%" x="-1" y="-1"><feGaussianBlur result="blurOut" stdDeviation="2.0"/><feColorMatrix in="blurOut" result="blurOut2" type="matrix" values="0 0 0 0 0 0 0 0 0 0 0 0 0 0 0 0 0 0 .4 0"/><feOffset dx="4.0" dy="4.0" in="blurOut2" result="blurOut3"/><feBlend in="SourceGraphic" in2="blurOut3" mode="normal"/></filter></defs><g><text fill="#000000" font-family="sans-serif" font-size="18" lengthAdjust="spacing" textLength="126" x="714.475" y="17.4023">Info - S1 v.0.1</text><!--MD5=[c62305f8767b7297d71498ed93a07a0b]
entity r11--><rect fill="#FFFFE0" filter="url(#f3ju89sxf85ms)" height="52.9766" rx="35" ry="35" style="stroke:#000000;stroke-width:1.5;" width="134" x="363.95" y="163.1992"/><text fill="#000000" font-family="sans-serif" font-size="14" lengthAdjust="spacing" textLength="40" x="410.95" y="186.7344">R1.01</text><text fill="#000000" font-family="sans-serif" font-size="14" lengthAdjust="spacing" textLength="114" x="373.95" y="203.2227">Initiation au dev.</text><!--MD5=[97e12c4c35df3db615dd206260a1eae4]
entity r12--><rect fill="#FFFFE0" filter="url(#f3ju89sxf85ms)" height="52.9766" rx="35" ry="35" style="stroke:#000000;stroke-width:1.5;" width="152" x="802.95" y="28.1992"/><text fill="#000000" font-family="sans-serif" font-size="14" lengthAdjust="spacing" textLength="40" x="858.95" y="51.7344">R1.02</text><text fill="#000000" font-family="sans-serif" font-size="14" lengthAdjust="spacing" textLength="132" x="812.95" y="68.2227">Dev. interfaces web</text><!--MD5=[93d57ee199d382e6cba9586b5c9487cd]
entity r13--><rect fill="#FFFFE0" filter="url(#f3ju89sxf85ms)" height="52.9766" rx="35" ry="35" style="stroke:#000000;stroke-width:1.5;" width="99" x="326.45" y="28.1992"/><text fill="#000000" font-family="sans-serif" font-size="14" lengthAdjust="spacing" textLength="40" x="355.95" y="51.7344">R1.03</text><text fill="#000000" font-family="sans-serif" font-size="14" lengthAdjust="spacing" textLength="79" x="336.45" y="68.2227">Intro. archi.</text><!--MD5=[b9a4872f8bb942099c0de7666a35944b]
entity r14--><rect fill="#FFFFE0" filter="url(#f3ju89sxf85ms)" height="52.9766" rx="35" ry="35" style="stroke:#000000;stroke-width:1.5;" width="127" x="460.45" y="28.1992"/><text fill="#000000" font-family="sans-serif" font-size="14" lengthAdjust="spacing" textLength="40" x="503.95" y="51.7344">R1.04</text><text fill="#000000" font-family="sans-serif" font-size="14" lengthAdjust="spacing" textLength="103" x="470.45" y="68.2227">Intro. systèmes</text><!--MD5=[cc021f1cef0b492c3bce4583f556f0a2]
entity r15--><rect fill="#FFFFE0" filter="url(#f3ju89sxf85ms)" height="52.9766" rx="35" ry="35" style="stroke:#000000;stroke-width:1.5;" width="131" x="1299.45" y="28.1992"/><text fill="#000000" font-family="sans-serif" font-size="14" lengthAdjust="spacing" textLength="40" x="1344.95" y="51.7344">R1.05</text><text fill="#000000" font-family="sans-serif" font-size="14" lengthAdjust="spacing" textLength="107" x="1309.45" y="68.2227">Introduction BD</text><!--MD5=[62ab235c837744bff8eff6124a0b191a]
entity r16--><rect fill="#FFFFE0" filter="url(#f3ju89sxf85ms)" height="52.9766" rx="35" ry="35" style="stroke:#000000;stroke-width:1.5;" width="130" x="86.95" y="311.1992"/><text fill="#000000" font-family="sans-serif" font-size="14" lengthAdjust="spacing" textLength="40" x="131.95" y="334.7344">R1.06</text><text fill="#000000" font-family="sans-serif" font-size="14" lengthAdjust="spacing" textLength="106" x="96.95" y="351.2227">Maths discrètes</text><!--MD5=[8917ed62d460b8ee39da132cbaef447f]
entity r17--><rect fill="#FFFFE0" filter="url(#f3ju89sxf85ms)" height="52.9766" rx="35" ry="35" style="stroke:#000000;stroke-width:1.5;" width="169" x="252.45" y="311.1992"/><text fill="#000000" font-family="sans-serif" font-size="14" lengthAdjust="spacing" textLength="40" x="316.95" y="334.7344">R1.07</text><text fill="#000000" font-family="sans-serif" font-size="14" lengthAdjust="spacing" textLength="145" x="262.45" y="351.2227">Outils fondamentaux</text><!--MD5=[8f8e0e7a3acfde448c3dfdd334465ec7]
entity r18--><rect fill="#FFFFE0" filter="url(#f3ju89sxf85ms)" height="52.9766" rx="35" ry="35" style="stroke:#000000;stroke-width:1.5;" width="152" x="989.95" y="28.1992"/><text fill="#000000" font-family="sans-serif" font-size="14" lengthAdjust="spacing" textLength="40" x="1045.95" y="51.7344">R1.08</text><text fill="#000000" font-family="sans-serif" font-size="14" lengthAdjust="spacing" textLength="128" x="999.95" y="68.2227">Gestion proj. orga.</text><!--MD5=[c188652b1ea8f8c223432d772372dc7b]
entity r19--><rect fill="#FFFFE0" filter="url(#f3ju89sxf85ms)" height="52.9766" rx="35" ry="35" style="stroke:#000000;stroke-width:1.5;" width="87" x="1177.45" y="28.1992"/><text fill="#000000" font-family="sans-serif" font-size="14" lengthAdjust="spacing" textLength="40" x="1200.95" y="51.7344">R1.09</text><text fill="#000000" font-family="sans-serif" font-size="14" lengthAdjust="spacing" textLength="67" x="1187.45" y="68.2227">Économie</text><!--MD5=[074acbed5e8b110780196068e5a2c82a]
entity r110--><rect fill="#FFFFE0" filter="url(#f3ju89sxf85ms)" height="52.9766" rx="35" ry="35" style="stroke:#000000;stroke-width:1.5;" width="143" x="26.45" y="28.1992"/><text fill="#000000" font-family="sans-serif" font-size="14" lengthAdjust="spacing" textLength="40" x="77.95" y="51.7344">R1.10</text><text fill="#000000" font-family="sans-serif" font-size="14" lengthAdjust="spacing" textLength="123" x="36.45" y="68.2227">Anglais technique</text><!--MD5=[71adfa3e2dfa04ee95d657fbffd12665]
entity r111--><rect fill="#FFFFE0" filter="url(#f3ju89sxf85ms)" height="52.9766" rx="35" ry="35" style="stroke:#000000;stroke-width:1.5;" width="145" x="622.45" y="28.1992"/><text fill="#000000" font-family="sans-serif" font-size="14" lengthAdjust="spacing" textLength="40" x="674.95" y="51.7344">R1.11</text><text fill="#000000" font-family="sans-serif" font-size="14" lengthAdjust="spacing" textLength="121" x="632.45" y="68.2227">Bases de la comm</text><!--MD5=[5505fae473b37b001fdb3d002aa5bc30]
entity sae11--><polygon fill="#87CEEB" filter="url(#f3ju89sxf85ms)" points="551.95,308.1992,561.95,298.1992,699.95,298.1992,699.95,367.6641,689.95,377.6641,551.95,377.6641,551.95,308.1992" style="stroke:#000000;stroke-width:1.5;"/><line style="stroke:#000000;stroke-width:1.5;" x1="689.95" x2="699.95" y1="308.1992" y2="298.1992"/><line style="stroke:#000000;stroke-width:1.5;" x1="551.95" x2="689.95" y1="308.1992" y2="308.1992"/><line style="stroke:#000000;stroke-width:1.5;" x1="689.95" x2="689.95" y1="308.1992" y2="377.6641"/><text fill="#000000" font-family="sans-serif" font-size="14" lengthAdjust="spacing" textLength="52" x="594.95" y="331.7344">SAE 1.1</text><text fill="#000000" font-family="sans-serif" font-size="14" lengthAdjust="spacing" textLength="108" x="566.95" y="348.2227">Implémentation</text><text fill="#000000" font-family="sans-serif" font-size="14" lengthAdjust="spacing" textLength="87" x="577.45" y="364.7109">besoin client</text><!--MD5=[f8350f3e21562befa4ae41ef93cbabd6]
entity sae12--><polygon fill="#87CEEB" filter="url(#f3ju89sxf85ms)" points="247.95,464.1992,257.95,454.1992,425.95,454.1992,425.95,507.1758,415.95,517.1758,247.95,517.1758,247.95,464.1992" style="stroke:#000000;stroke-width:1.5;"/><line style="stroke:#000000;stroke-width:1.5;" x1="415.95" x2="425.95" y1="464.1992" y2="454.1992"/><line style="stroke:#000000;stroke-width:1.5;" x1="247.95" x2="415.95" y1="464.1992" y2="464.1992"/><line style="stroke:#000000;stroke-width:1.5;" x1="415.95" x2="415.95" y1="464.1992" y2="517.1758"/><text fill="#000000" font-family="sans-serif" font-size="14" lengthAdjust="spacing" textLength="52" x="305.95" y="487.7344">SAE 1.2</text><text fill="#000000" font-family="sans-serif" font-size="14" lengthAdjust="spacing" textLength="138" x="262.95" y="504.2227">Comparaison d'algo</text><!--MD5=[9837f4b409915ab6344efab6d40991c3]
entity sae13--><polygon fill="#87CEEB" filter="url(#f3ju89sxf85ms)" points="532.95,168.1992,542.95,158.1992,690.95,158.1992,690.95,211.1758,680.95,221.1758,532.95,221.1758,532.95,168.1992" style="stroke:#000000;stroke-width:1.5;"/><line style="stroke:#000000;stroke-width:1.5;" x1="680.95" x2="690.95" y1="168.1992" y2="158.1992"/><line style="stroke:#000000;stroke-width:1.5;" x1="532.95" x2="680.95" y1="168.1992" y2="168.1992"/><line style="stroke:#000000;stroke-width:1.5;" x1="680.95" x2="680.95" y1="168.1992" y2="221.1758"/><text fill="#000000" font-family="sans-serif" font-size="14" lengthAdjust="spacing" textLength="52" x="580.95" y="191.7344">SAE 1.3</text><text fill="#000000" font-family="sans-serif" font-size="14" lengthAdjust="spacing" textLength="118" x="547.95" y="208.2227">Installation poste</text><!--MD5=[d7cdbd9003927e1cb2a773f82629afd6]
entity sae14--><polygon fill="#87CEEB" filter="url(#f3ju89sxf85ms)" points="1252.45,168.1992,1262.45,158.1992,1373.45,158.1992,1373.45,211.1758,1363.45,221.1758,1252.45,221.1758,1252.45,168.1992" style="stroke:#000000;stroke-width:1.5;"/><line style="stroke:#000000;stroke-width:1.5;" x1="1363.45" x2="1373.45" y1="168.1992" y2="158.1992"/><line style="stroke:#000000;stroke-width:1.5;" x1="1252.45" x2="1363.45" y1="168.1992" y2="168.1992"/><line style="stroke:#000000;stroke-width:1.5;" x1="1363.45" x2="1363.45" y1="168.1992" y2="221.1758"/><text fill="#000000" font-family="sans-serif" font-size="14" lengthAdjust="spacing" textLength="52" x="1281.95" y="191.7344">SAE 1.4</text><text fill="#000000" font-family="sans-serif" font-size="14" lengthAdjust="spacing" textLength="81" x="1267.45" y="208.2227">Création BD</text><!--MD5=[cbc102692a25a9d75da07bd812b0c4e3]
entity sae15--><polygon fill="#87CEEB" filter="url(#f3ju89sxf85ms)" points="752.95,168.1992,762.95,158.1992,898.95,158.1992,898.95,211.1758,888.95,221.1758,752.95,221.1758,752.95,168.1992" style="stroke:#000000;stroke-width:1.5;"/><line style="stroke:#000000;stroke-width:1.5;" x1="888.95" x2="898.95" y1="168.1992" y2="158.1992"/><line style="stroke:#000000;stroke-width:1.5;" x1="752.95" x2="888.95" y1="168.1992" y2="168.1992"/><line style="stroke:#000000;stroke-width:1.5;" x1="888.95" x2="888.95" y1="168.1992" y2="221.1758"/><text fill="#000000" font-family="sans-serif" font-size="14" lengthAdjust="spacing" textLength="52" x="794.95" y="191.7344">SAE 1.5</text><text fill="#000000" font-family="sans-serif" font-size="14" lengthAdjust="spacing" textLength="106" x="767.95" y="208.2227">Recueil besoins</text><!--MD5=[94ac2d62d2a83b25c4bf0a4c59f99025]
entity sae16--><polygon fill="#87CEEB" filter="url(#f3ju89sxf85ms)" points="933.95,168.1992,943.95,158.1992,1105.95,158.1992,1105.95,211.1758,1095.95,221.1758,933.95,221.1758,933.95,168.1992" style="stroke:#000000;stroke-width:1.5;"/><line style="stroke:#000000;stroke-width:1.5;" x1="1095.95" x2="1105.95" y1="168.1992" y2="158.1992"/><line style="stroke:#000000;stroke-width:1.5;" x1="933.95" x2="1095.95" y1="168.1992" y2="168.1992"/><line style="stroke:#000000;stroke-width:1.5;" x1="1095.95" x2="1095.95" y1="168.1992" y2="221.1758"/><text fill="#000000" font-family="sans-serif" font-size="14" lengthAdjust="spacing" textLength="52" x="988.95" y="191.7344">SAE 1.6</text><text fill="#000000" font-family="sans-serif" font-size="14" lengthAdjust="spacing" textLength="132" x="948.95" y="208.2227">Environnement éco</text><!--MD5=[cbf2a705c8c36a956106bd646f097c75]
entity r--><rect fill="#FFFFE0" filter="url(#f3ju89sxf85ms)" height="36.4883" rx="35" ry="35" style="stroke:#000000;stroke-width:1.5;" width="90" x="1465.95" y="36.6992"/><text fill="#000000" font-family="sans-serif" font-size="14" lengthAdjust="spacing" textLength="70" x="1475.95" y="60.2344">Ressource</text><!--MD5=[d8322213e5f4465576b8bf70cd9bce59]
entity s--><polygon fill="#87CEEB" filter="url(#f3ju89sxf85ms)" points="1477.95,176.6992,1487.95,166.6992,1543.95,166.6992,1543.95,203.1875,1533.95,213.1875,1477.95,213.1875,1477.95,176.6992" style="stroke:#000000;stroke-width:1.5;"/><line style="stroke:#000000;stroke-width:1.5;" x1="1533.95" x2="1543.95" y1="176.6992" y2="166.6992"/><line style="stroke:#000000;stroke-width:1.5;" x1="1477.95" x2="1533.95" y1="176.6992" y2="176.6992"/><line style="stroke:#000000;stroke-width:1.5;" x1="1533.95" x2="1533.95" y1="176.6992" y2="213.1875"/><text fill="#000000" font-family="sans-serif" font-size="14" lengthAdjust="spacing" textLength="26" x="1492.95" y="200.2344">SAÉ</text><!--MD5=[bc3f007aea2e9a35d24dd78be8a76800]
reverse link sae15 to sae11--><path d="M779.65,224.4992 C749.55,246.4692 710.23,275.1792 678.89,298.0592 " fill="none" id="sae15-backto-sae11" style="stroke:#000000;stroke-width:1.0;stroke-dasharray:7.0,7.0;"/><polygon fill="#000000" points="784.02,221.3092,774.3943,223.3941,779.9844,224.2611,779.1173,229.8511,784.02,221.3092" style="stroke:#000000;stroke-width:1.0;"/><!--MD5=[882665abb3dd31801972e8044fc9f1e8]
reverse link sae11 to sae12--><path d="M580.14,380.7592 C561.8,395.9892 539.85,412.3492 517.95,424.1992 C489.39,439.6592 456.18,452.1392 426.05,461.6692 " fill="none" id="sae11-backto-sae12" style="stroke:#000000;stroke-width:1.0;stroke-dasharray:7.0,7.0;"/><polygon fill="#000000" points="584.24,377.3192,574.7702,380.0253,580.4047,380.5271,579.9029,386.1617,584.24,377.3192" style="stroke:#000000;stroke-width:1.0;"/><!--MD5=[e22b674726aba1f5cf4c0ffba046556c]
link r11 to sae11--><path d="M469,216.3992 C484.35,226.9692 502.14,239.4692 517.95,251.1992 C536.69,265.1192 556.85,280.8492 574.61,294.9892 " fill="none" id="r11-to-sae11" style="stroke:#000000;stroke-width:1.0;"/><polygon fill="#000000" points="578.6,298.1692,574.0827,289.4174,574.6998,295.0405,569.0768,295.6577,578.6,298.1692" style="stroke:#000000;stroke-width:1.0;"/><text fill="#000000" font-family="sans-serif" font-size="13" lengthAdjust="spacing" textLength="23" x="540.95" y="264.7676">2/2</text><!--MD5=[771e650061340fe56649b555a9a15e65]
link r11 to sae12--><path d="M438.44,216.2292 C447.9,253.2192 460.5,323.1692 438.95,377.1992 C427.42,406.1092 404.01,431.6992 382.52,450.6492 " fill="none" id="r11-to-sae12" style="stroke:#000000;stroke-width:1.0;"/><polygon fill="#000000" points="378.54,454.1192,387.9535,451.2232,382.31,450.8348,382.6984,445.1913,378.54,454.1192" style="stroke:#000000;stroke-width:1.0;"/><text fill="#000000" font-family="sans-serif" font-size="13" lengthAdjust="spacing" textLength="23" x="451.95" y="342.7676">2/2</text><!--MD5=[d83a422d616334b251cb6f8ae412ed6b]
link r12 to sae15--><path d="M855.89,81.4792 C849.1,90.3392 842.33,100.6992 837.95,111.1992 C832.54,124.1792 829.54,139.2992 827.89,152.7292 " fill="none" id="r12-to-sae15" style="stroke:#000000;stroke-width:1.0;"/><polygon fill="#000000" points="827.3,157.9692,832.2775,149.4707,827.8569,153.0003,824.3272,148.5797,827.3,157.9692" style="stroke:#000000;stroke-width:1.0;"/><text fill="#000000" font-family="sans-serif" font-size="13" lengthAdjust="spacing" textLength="23" x="838.95" y="124.7676">0/2</text><!--MD5=[47243e58f1a54596dcc96bd84e6fcd53]
link r12 to sae16--><path d="M906.82,81.2992 C916.97,90.6692 928.51,101.3792 938.95,111.1992 C953.85,125.2192 970.17,140.7892 984.23,154.2792 " fill="none" id="r12-to-sae16" style="stroke:#000000;stroke-width:1.0;"/><polygon fill="#000000" points="988.14,158.0192,984.4191,148.9003,984.5336,154.556,978.8779,154.6705,988.14,158.0192" style="stroke:#000000;stroke-width:1.0;"/><text fill="#000000" font-family="sans-serif" font-size="13" lengthAdjust="spacing" textLength="23" x="957.95" y="124.7676">0/2</text><!--MD5=[e02f712c29f069960f6e1829a298cbc4]
link r13 to sae13--><path d="M421.45,81.3392 C458.93,102.4592 512.34,132.5592 553.07,155.5192 " fill="none" id="r13-to-sae13" style="stroke:#000000;stroke-width:1.0;"/><polygon fill="#000000" points="557.47,157.9992,551.5955,150.0942,553.1148,155.5432,547.6658,157.0625,557.47,157.9992" style="stroke:#000000;stroke-width:1.0;"/><text fill="#000000" font-family="sans-serif" font-size="13" lengthAdjust="spacing" textLength="23" x="502.95" y="124.7676">3/0</text><!--MD5=[e6e85c36fc7e19466c0dc99f80c65c76]
link r14 to sae13--><path d="M540.92,81.3392 C554.5,101.8692 573.68,130.8592 588.69,153.5492 " fill="none" id="r14-to-sae13" style="stroke:#000000;stroke-width:1.0;"/><polygon fill="#000000" points="591.64,157.9992,589.9913,148.2893,588.8731,153.8346,583.3278,152.7164,591.64,157.9992" style="stroke:#000000;stroke-width:1.0;"/><text fill="#000000" font-family="sans-serif" font-size="13" lengthAdjust="spacing" textLength="23" x="571.95" y="124.7676">2/0</text><!--MD5=[f70158d1e6576c4c52697264a68a4b20]
link r15 to sae14--><path d="M1354.92,81.3392 C1346.93,101.7792 1335.66,130.6192 1326.8,153.2692 " fill="none" id="r15-to-sae14" style="stroke:#000000;stroke-width:1.0;"/><polygon fill="#000000" points="1324.95,157.9992,1331.9441,151.0651,1326.765,153.3403,1324.4898,148.1611,1324.95,157.9992" style="stroke:#000000;stroke-width:1.0;"/><text fill="#000000" font-family="sans-serif" font-size="13" lengthAdjust="spacing" textLength="23" x="1343.95" y="124.7676">2/2</text><!--MD5=[82db2c419d53366c6d726b11d8a72f30]
link r16 to sae12--><path d="M184.6,364.4692 C215.1,388.5392 260.82,424.6192 294.21,450.9692 " fill="none" id="r16-to-sae12" style="stroke:#000000;stroke-width:1.0;"/><polygon fill="#000000" points="298.22,454.1392,293.648,445.4159,294.3004,451.035,288.6812,451.6873,298.22,454.1392" style="stroke:#000000;stroke-width:1.0;"/><text fill="#000000" font-family="sans-serif" font-size="13" lengthAdjust="spacing" textLength="8" x="256.95" y="420.7676">x</text><!--MD5=[d9de3a0b9aeaae962593cac5878678f9]
link r17 to sae12--><path d="M336.95,364.4692 C336.95,387.9492 336.95,422.8592 336.95,449.0292 " fill="none" id="r17-to-sae12" style="stroke:#000000;stroke-width:1.0;"/><polygon fill="#000000" points="336.95,454.1392,340.95,445.1392,336.95,449.1392,332.95,445.1392,336.95,454.1392" style="stroke:#000000;stroke-width:1.0;"/><text fill="#000000" font-family="sans-serif" font-size="13" lengthAdjust="spacing" textLength="8" x="337.95" y="420.7676">x</text><!--MD5=[0280c8038c67eb650e301907d50360f7]
link r18 to sae15--><path d="M989.9,78.6292 C956.17,89.4992 920.79,102.0692 905.95,111.1992 C887.12,122.7892 869.16,139.4792 855.04,154.4092 " fill="none" id="r18-to-sae15" style="stroke:#000000;stroke-width:1.0;"/><polygon fill="#000000" points="851.54,158.1592,860.6056,154.3103,854.9521,154.5044,854.7579,148.8509,851.54,158.1592" style="stroke:#000000;stroke-width:1.0;"/><text fill="#000000" font-family="sans-serif" font-size="13" lengthAdjust="spacing" textLength="23" x="906.95" y="124.7676">4/0</text><!--MD5=[5c815fe65c1987dc8e52df82cef34889]
link r18 to sae16--><path d="M1057.08,81.3392 C1050.01,101.7792 1040.04,130.6192 1032.21,153.2692 " fill="none" id="r18-to-sae16" style="stroke:#000000;stroke-width:1.0;"/><polygon fill="#000000" points="1030.57,157.9992,1037.3021,150.8105,1032.2109,153.2762,1029.7452,148.185,1030.57,157.9992" style="stroke:#000000;stroke-width:1.0;"/><text fill="#000000" font-family="sans-serif" font-size="13" lengthAdjust="spacing" textLength="8" x="1046.95" y="124.7676">x</text><!--MD5=[2f5e44754ea22a4434289056cd6fcccf]
link r19 to sae14--><path d="M1238.69,81.3392 C1252.94,101.9492 1273.11,131.1092 1288.83,153.8292 " fill="none" id="r19-to-sae14" style="stroke:#000000;stroke-width:1.0;"/><polygon fill="#000000" points="1291.71,157.9992,1289.8846,148.321,1288.8677,153.8857,1283.303,152.8687,1291.71,157.9992" style="stroke:#000000;stroke-width:1.0;"/><text fill="#000000" font-family="sans-serif" font-size="13" lengthAdjust="spacing" textLength="23" x="1270.95" y="124.7676">2/0</text><!--MD5=[a01a34fbf7a4599f338c4cefb204b803]
link r19 to sae16--><path d="M1182.2,81.3392 C1150.4,102.3792 1105.16,132.3192 1070.52,155.2392 " fill="none" id="r19-to-sae16" style="stroke:#000000;stroke-width:1.0;"/><polygon fill="#000000" points="1066.35,157.9992,1076.0638,156.3736,1070.5212,155.2422,1071.6526,149.6997,1066.35,157.9992" style="stroke:#000000;stroke-width:1.0;"/><text fill="#000000" font-family="sans-serif" font-size="13" lengthAdjust="spacing" textLength="8" x="1133.95" y="124.7676">x</text><!--MD5=[127651c5b30928ef2d37f7fc9fa3ed32]
link r110 to sae12--><path d="M85.58,81.3592 C59.44,139.6292 6,284.1192 68.95,377.1992 C107.6,434.3492 182.16,461.1192 242.84,473.6592 " fill="none" id="r110-to-sae12" style="stroke:#000000;stroke-width:1.0;"/><polygon fill="#000000" points="247.92,474.6892,239.8856,468.9928,243.0182,473.7031,238.3079,476.8357,247.92,474.6892" style="stroke:#000000;stroke-width:1.0;"/><text fill="#000000" font-family="sans-serif" font-size="13" lengthAdjust="spacing" textLength="8" x="40.95" y="264.7676">x</text><!--MD5=[12af6f8472c7a84b986bee58814de1a1]
link r110 to sae13--><path d="M169.51,71.8292 C252.86,90.9492 394.52,124.4992 514.95,158.1992 C519.26,159.4092 523.66,160.6692 528.1,161.9692 " fill="none" id="r110-to-sae13" style="stroke:#000000;stroke-width:1.0;"/><polygon fill="#000000" points="532.93,163.3992,525.4275,157.0186,528.1339,161.9861,523.1664,164.6925,532.93,163.3992" style="stroke:#000000;stroke-width:1.0;"/><text fill="#000000" font-family="sans-serif" font-size="13" lengthAdjust="spacing" textLength="23" x="402.95" y="124.7676">0/2</text><!--MD5=[0df309e124857728dbc27e3cd88c7d0b]
link r111 to sae13--><path d="M656.81,81.3292 C646.76,89.7692 636.81,99.9092 629.95,111.1992 C622.35,123.7092 617.95,139.1492 615.42,152.9392 " fill="none" id="r111-to-sae13" style="stroke:#000000;stroke-width:1.0;"/><polygon fill="#000000" points="614.56,157.9392,620.0199,149.7423,615.4028,153.0108,612.1343,148.3937,614.56,157.9392" style="stroke:#000000;stroke-width:1.0;"/><text fill="#000000" font-family="sans-serif" font-size="13" lengthAdjust="spacing" textLength="23" x="630.95" y="124.7676">0/2</text><!--MD5=[5e68ba0ac68b96dff35ac5ddc6e8b70f]
link r111 to sae15--><path d="M691.56,81.2792 C690.92,96.2092 692.58,114.6892 701.95,128.1992 C713.28,144.5292 730.29,156.6292 748.11,165.5192 " fill="none" id="r111-to-sae15" style="stroke:#000000;stroke-width:1.0;"/><polygon fill="#000000" points="752.65,167.7192,746.2827,160.2054,748.1469,165.5463,742.806,167.4104,752.65,167.7192" style="stroke:#000000;stroke-width:1.0;"/><text fill="#000000" font-family="sans-serif" font-size="13" lengthAdjust="spacing" textLength="8" x="702.95" y="124.7676">x</text><!--MD5=[7099522ca0b4d66d5e87bf2dcad56c9e]
link r111 to sae16--><path d="M725.82,81.3492 C745.86,96.8592 773.15,115.9492 799.95,128.1992 C848.38,150.3392 864.62,144.0392 915.95,158.1992 C920.12,159.3492 924.38,160.5392 928.69,161.7492 " fill="none" id="r111-to-sae16" style="stroke:#000000;stroke-width:1.0;"/><polygon fill="#000000" points="933.75,163.1892,926.1902,156.8766,928.9413,161.8194,923.9985,164.5705,933.75,163.1892" style="stroke:#000000;stroke-width:1.0;"/><text fill="#000000" font-family="sans-serif" font-size="13" lengthAdjust="spacing" textLength="23" x="800.95" y="124.7676">0/4</text><!--MD5=[83f07c80460ebf22ea7152e1bc3b1282]
link r to s--><path d="M1510.95,72.8192 C1510.95,95.1792 1510.95,134.6092 1510.95,161.1892 " fill="none" id="r-to-s" style="stroke:#000000;stroke-width:1.0;"/><polygon fill="#000000" points="1510.95,166.3292,1514.95,157.3292,1510.95,161.3292,1506.95,157.3292,1510.95,166.3292" style="stroke:#000000;stroke-width:1.0;"/><text fill="#000000" font-family="sans-serif" font-size="13" lengthAdjust="spacing" textLength="40" x="1511.95" y="124.7676">TD/TP</text><!--MD5=[cbe00776cf09b027f9e1b0e7a349d4db]
@startuml buts1

!include config.cfg
'!include competences.plantuml

'!include sae.plantuml

'- - - - - - - - - - - Ressources
storage "R1.01\nInitiation au dev." as r11
storage "R1.02\nDev. interfaces web" as r12
storage "R1.03\nIntro. archi." as r13
storage "R1.04\nIntro. systèmes " as r14
storage "R1.05\nIntroduction BD " as r15
storage "R1.06\nMaths discrètes " as r16
storage "R1.07\nOutils fondamentaux " as r17
storage "R1.08\nGestion proj. orga. " as r18
storage "R1.09\nÉconomie" as r19
storage "R1.10\nAnglais technique" as r110
storage "R1.11\nBases de la comm " as r111

'- - - - - - - - - - - SAÉs
node "SAE 1.1\nImplémentation\nbesoin client" as sae11 
node "SAE 1.2\nComparaison d'algo" as sae12 
node "SAE 1.3\nInstallation poste" as sae13
node "SAE 1.4\nCréation BD" as sae14 
node "SAE 1.5\nRecueil besoins" as sae15 
node "SAE 1.6\nEnvironnement éco" as sae16 


'- - - - - - - - - - - Chronologie des SAÉ

sae15 <.. sae11
sae11 <.. sae12

'- - - - - - - - - - - Graphe
title Info - S1 v.0.1



r11 - -> sae11 : 2/2
r11 - -> sae12 : 2/2
r12 - -> sae15 : 0/2
r12 - -> sae16 : 0/2
r13 - -> sae13 : 3/0
r14 - -> sae13 : 2/0
r15 - -> sae14 : 2/2
r16 - -> sae12 : x
r17 - -> sae12 : x
r18 - -> sae15 : 4/0
r18 - -> sae16 : x
r19 - -> sae14 : 2/0
r19 - -> sae16 : x
r110 - -> sae12 : x
r110 - -> sae13 : 0/2
r111 - -> sae13 : 0/2
r111 - -> sae15 : x
r111 - -> sae16 : 0/4

'- - - Legend- - -
storage Ressource as r
node SAÉ as s
r - -> s : TD/TP

' Astuce cachée pour mettre la 14 à gauche de la 15
'sae14 -[hidden]> sae15
@enduml

@startuml buts1

hide circle
hide empty members
hide methods	


skinparam defaultTextAlignment center

skinparam storage {
  BackgroundColor Lightyellow
}

skinparam node {
  BackgroundColor Skyblue
}

skinparam rectangle {
  BackgroundColor Lightgreen
  BorderColor Black
}

skinparam arrow {
    Color<<ac>> Black
}

skinparam package {
	BackgroundColor empty
	BorderColor DarkSlateGray
	ArrowColor Black
	FontColor Black
	FontSize 12
	FontName TrebuchetMS
}
skinparam roundcorner 10

skinparam class {
	BackgroundColor AliceBlue
	BorderColor DarkSlateGray
	ArrowColor Black
	FontColor Black
	FontSize 12
	FontName TrebuchetMS
}
skinparam arrow {
    MessageAlign center
}








storage "R1.01\nInitiation au dev." as r11
storage "R1.02\nDev. interfaces web" as r12
storage "R1.03\nIntro. archi." as r13
storage "R1.04\nIntro. systèmes " as r14
storage "R1.05\nIntroduction BD " as r15
storage "R1.06\nMaths discrètes " as r16
storage "R1.07\nOutils fondamentaux " as r17
storage "R1.08\nGestion proj. orga. " as r18
storage "R1.09\nÉconomie" as r19
storage "R1.10\nAnglais technique" as r110
storage "R1.11\nBases de la comm " as r111

node "SAE 1.1\nImplémentation\nbesoin client" as sae11 
node "SAE 1.2\nComparaison d'algo" as sae12 
node "SAE 1.3\nInstallation poste" as sae13
node "SAE 1.4\nCréation BD" as sae14 
node "SAE 1.5\nRecueil besoins" as sae15 
node "SAE 1.6\nEnvironnement éco" as sae16 



sae15 <.. sae11
sae11 <.. sae12

title Info - S1 v.0.1



r11 - -> sae11 : 2/2
r11 - -> sae12 : 2/2
r12 - -> sae15 : 0/2
r12 - -> sae16 : 0/2
r13 - -> sae13 : 3/0
r14 - -> sae13 : 2/0
r15 - -> sae14 : 2/2
r16 - -> sae12 : x
r17 - -> sae12 : x
r18 - -> sae15 : 4/0
r18 - -> sae16 : x
r19 - -> sae14 : 2/0
r19 - -> sae16 : x
r110 - -> sae12 : x
r110 - -> sae13 : 0/2
r111 - -> sae13 : 0/2
r111 - -> sae15 : x
r111 - -> sae16 : 0/4

storage Ressource as r
node SAÉ as s
r - -> s : TD/TP

@enduml

PlantUML version 1.2021.2beta14(Unknown compile time)
(GPL source distribution)
Java Runtime: OpenJDK Runtime Environment
JVM: OpenJDK 64-Bit Server VM
Default Encoding: UTF-8
Language: fr
Country: FR
--></g></svg>