<?xml version="1.0" encoding="UTF-8" standalone="no"?><svg xmlns="http://www.w3.org/2000/svg" xmlns:xlink="http://www.w3.org/1999/xlink" contentScriptType="application/ecmascript" contentStyleType="text/css" height="524px" preserveAspectRatio="none" style="width:1843px;height:524px;" version="1.1" viewBox="0 0 1843 524" width="1843px" zoomAndPan="magnify"><defs><filter height="300%" id="fsriz67xxxyoy" width="300%" x="-1" y="-1"><feGaussianBlur result="blurOut" stdDeviation="2.0"/><feColorMatrix in="blurOut" result="blurOut2" type="matrix" values="0 0 0 0 0 0 0 0 0 0 0 0 0 0 0 0 0 0 .4 0"/><feOffset dx="4.0" dy="4.0" in="blurOut2" result="blurOut3"/><feBlend in="SourceGraphic" in2="blurOut3" mode="normal"/></filter></defs><g><text fill="#000000" font-family="sans-serif" font-size="18" lengthAdjust="spacing" textLength="126" x="852.25" y="17.4023">Info - S2 v.0.1</text><!--MD5=[3dd012b86c530173416fc7d253686481]
entity r21--><rect fill="#FFFFE0" filter="url(#fsriz67xxxyoy)" height="52.9766" rx="35" ry="35" style="stroke:#000000;stroke-width:1.5;" width="95" x="7" y="36.1992"/><text fill="#000000" font-family="sans-serif" font-size="14" lengthAdjust="spacing" textLength="40" x="34.5" y="59.7344">R2.01</text><text fill="#000000" font-family="sans-serif" font-size="14" lengthAdjust="spacing" textLength="75" x="17" y="76.2227">Dev. objets</text><!--MD5=[67e35ef8368026846775d77cdad31749]
entity r22--><rect fill="#FFFFE0" filter="url(#fsriz67xxxyoy)" height="69.4648" rx="35" ry="35" style="stroke:#000000;stroke-width:1.5;" width="98" x="281.5" y="28.1992"/><text fill="#000000" font-family="sans-serif" font-size="14" lengthAdjust="spacing" textLength="40" x="310.5" y="51.7344">R2.02</text><text fill="#000000" font-family="sans-serif" font-size="14" lengthAdjust="spacing" textLength="78" x="291.5" y="68.2227">Dev. d'apps</text><text fill="#000000" font-family="sans-serif" font-size="14" lengthAdjust="spacing" textLength="60" x="300.5" y="84.7109">avec IHM</text><!--MD5=[821d39525161270f4df82e6e1c6ea972]
entity r23--><rect fill="#FFFFE0" filter="url(#fsriz67xxxyoy)" height="52.9766" rx="35" ry="35" style="stroke:#000000;stroke-width:1.5;" width="118" x="414.5" y="36.1992"/><text fill="#000000" font-family="sans-serif" font-size="14" lengthAdjust="spacing" textLength="40" x="453.5" y="59.7344">R2.03</text><text fill="#000000" font-family="sans-serif" font-size="14" lengthAdjust="spacing" textLength="98" x="424.5" y="76.2227">Qualitéde dev.</text><!--MD5=[4526145502876c8641a74161f7bfce04]
entity r24--><rect fill="#FFFFE0" filter="url(#fsriz67xxxyoy)" height="69.4648" rx="35" ry="35" style="stroke:#000000;stroke-width:1.5;" width="93" x="1489" y="28.1992"/><text fill="#000000" font-family="sans-serif" font-size="14" lengthAdjust="spacing" textLength="40" x="1515.5" y="51.7344">R2.04</text><text fill="#000000" font-family="sans-serif" font-size="14" lengthAdjust="spacing" textLength="63" x="1504" y="68.2227">Réseau &amp;</text><text fill="#000000" font-family="sans-serif" font-size="14" lengthAdjust="spacing" textLength="73" x="1499" y="84.7109">bas niveau</text><!--MD5=[ea8bbe0161979ef7bb390998b0e29ddc]
entity r25--><rect fill="#FFFFE0" filter="url(#fsriz67xxxyoy)" height="69.4648" rx="35" ry="35" style="stroke:#000000;stroke-width:1.5;" width="75" x="1617" y="28.1992"/><text fill="#000000" font-family="sans-serif" font-size="14" lengthAdjust="spacing" textLength="40" x="1634.5" y="51.7344">R2.05</text><text fill="#000000" font-family="sans-serif" font-size="14" lengthAdjust="spacing" textLength="55" x="1627" y="68.2227">Services</text><text fill="#000000" font-family="sans-serif" font-size="14" lengthAdjust="spacing" textLength="46" x="1631.5" y="84.7109">réseau</text><!--MD5=[b6ed600b18067e5ea2c1ab61ebbc14c2]
entity r26--><rect fill="#FFFFE0" filter="url(#fsriz67xxxyoy)" height="69.4648" rx="35" ry="35" style="stroke:#000000;stroke-width:1.5;" width="103" x="1426" y="179.1992"/><text fill="#000000" font-family="sans-serif" font-size="14" lengthAdjust="spacing" textLength="40" x="1457.5" y="202.7344">R2.06</text><text fill="#000000" font-family="sans-serif" font-size="14" lengthAdjust="spacing" textLength="83" x="1436" y="219.2227">Exploitation</text><text fill="#000000" font-family="sans-serif" font-size="14" lengthAdjust="spacing" textLength="18" x="1468.5" y="235.7109">BD</text><!--MD5=[3b3ce3ef3d4fda525390598c347fcefd]
entity r27--><rect fill="#FFFFE0" filter="url(#fsriz67xxxyoy)" height="52.9766" rx="35" ry="35" style="stroke:#000000;stroke-width:1.5;" width="77" x="568" y="36.1992"/><text fill="#000000" font-family="sans-serif" font-size="14" lengthAdjust="spacing" textLength="40" x="586.5" y="59.7344">R2.07</text><text fill="#000000" font-family="sans-serif" font-size="14" lengthAdjust="spacing" textLength="57" x="578" y="76.2227">Graphes</text><!--MD5=[444db3d6594d48f94fe2423716e7ae22]
entity r28--><rect fill="#FFFFE0" filter="url(#fsriz67xxxyoy)" height="69.4648" rx="35" ry="35" style="stroke:#000000;stroke-width:1.5;" width="101" x="680" y="28.1992"/><text fill="#000000" font-family="sans-serif" font-size="14" lengthAdjust="spacing" textLength="40" x="710.5" y="51.7344">R2.08</text><text fill="#000000" font-family="sans-serif" font-size="14" lengthAdjust="spacing" textLength="33" x="714" y="68.2227">Stats</text><text fill="#000000" font-family="sans-serif" font-size="14" lengthAdjust="spacing" textLength="81" x="690" y="84.7109">descriptives</text><!--MD5=[90a05418a5c15d3ea694fe8b2f180047]
entity r29--><rect fill="#FFFFE0" filter="url(#fsriz67xxxyoy)" height="69.4648" rx="35" ry="35" style="stroke:#000000;stroke-width:1.5;" width="102" x="144.5" y="28.1992"/><text fill="#000000" font-family="sans-serif" font-size="14" lengthAdjust="spacing" textLength="40" x="175.5" y="51.7344">R2.09</text><text fill="#000000" font-family="sans-serif" font-size="14" lengthAdjust="spacing" textLength="67" x="162" y="68.2227">Méthodes</text><text fill="#000000" font-family="sans-serif" font-size="14" lengthAdjust="spacing" textLength="82" x="154.5" y="84.7109">numériques</text><!--MD5=[6f91ec1b5b5d3afdad109e38141ee2af]
entity r210--><rect fill="#FFFFE0" filter="url(#fsriz67xxxyoy)" height="69.4648" rx="35" ry="35" style="stroke:#000000;stroke-width:1.5;" width="92" x="816.5" y="28.1992"/><text fill="#000000" font-family="sans-serif" font-size="14" lengthAdjust="spacing" textLength="40" x="842.5" y="51.7344">R2.10</text><text fill="#000000" font-family="sans-serif" font-size="14" lengthAdjust="spacing" textLength="52" x="836.5" y="68.2227">Gestion</text><text fill="#000000" font-family="sans-serif" font-size="14" lengthAdjust="spacing" textLength="72" x="826.5" y="84.7109">proj. orga.</text><!--MD5=[daa90006a4d24914e0b27abc1980b845]
entity r211--><rect fill="#FFFFE0" filter="url(#fsriz67xxxyoy)" height="52.9766" rx="35" ry="35" style="stroke:#000000;stroke-width:1.5;" width="60" x="1084.5" y="36.1992"/><text fill="#000000" font-family="sans-serif" font-size="14" lengthAdjust="spacing" textLength="40" x="1094.5" y="59.7344">R2.11</text><text fill="#000000" font-family="sans-serif" font-size="14" lengthAdjust="spacing" textLength="34" x="1097.5" y="76.2227">Droit</text><!--MD5=[5b41133029c4fbc70ea2d4b37c7a795a]
entity r212--><rect fill="#FFFFE0" filter="url(#fsriz67xxxyoy)" height="69.4648" rx="35" ry="35" style="stroke:#000000;stroke-width:1.5;" width="90" x="1181.5" y="28.1992"/><text fill="#000000" font-family="sans-serif" font-size="14" lengthAdjust="spacing" textLength="40" x="1206.5" y="51.7344">R2.12</text><text fill="#000000" font-family="sans-serif" font-size="14" lengthAdjust="spacing" textLength="51" x="1201" y="68.2227">Anglais</text><text fill="#000000" font-family="sans-serif" font-size="14" lengthAdjust="spacing" textLength="70" x="1191.5" y="84.7109">entreprise</text><!--MD5=[0c56e812ee651e920de27167759daf02]
entity r213--><rect fill="#FFFFE0" filter="url(#fsriz67xxxyoy)" height="52.9766" rx="35" ry="35" style="stroke:#000000;stroke-width:1.5;" width="106" x="943.5" y="36.1992"/><text fill="#000000" font-family="sans-serif" font-size="14" lengthAdjust="spacing" textLength="40" x="976.5" y="59.7344">R2.13</text><text fill="#000000" font-family="sans-serif" font-size="14" lengthAdjust="spacing" textLength="86" x="953.5" y="76.2227">Comm. prof.</text><!--MD5=[a50e97fbc8b6df51ab3f87d48cfe58d8]
entity r214--><rect fill="#FFFFE0" filter="url(#fsriz67xxxyoy)" height="52.9766" rx="35" ry="35" style="stroke:#000000;stroke-width:1.5;" width="60" x="1309.5" y="36.1992"/><text fill="#000000" font-family="sans-serif" font-size="14" lengthAdjust="spacing" textLength="40" x="1319.5" y="59.7344">R2.14</text><text fill="#000000" font-family="sans-serif" font-size="14" lengthAdjust="spacing" textLength="24" x="1327.5" y="76.2227">PPP</text><!--MD5=[48493126fa2adf7bf42c5ee6c3f6b89a]
entity sae21--><polygon fill="#87CEEB" filter="url(#fsriz67xxxyoy)" points="392,464.1992,402,454.1992,553,454.1992,553,507.1758,543,517.1758,392,517.1758,392,464.1992" style="stroke:#000000;stroke-width:1.5;"/><line style="stroke:#000000;stroke-width:1.5;" x1="543" x2="553" y1="464.1992" y2="454.1992"/><line style="stroke:#000000;stroke-width:1.5;" x1="392" x2="543" y1="464.1992" y2="464.1992"/><line style="stroke:#000000;stroke-width:1.5;" x1="543" x2="543" y1="464.1992" y2="517.1758"/><text fill="#000000" font-family="sans-serif" font-size="14" lengthAdjust="spacing" textLength="52" x="441.5" y="487.7344">SAE 2.1</text><text fill="#000000" font-family="sans-serif" font-size="14" lengthAdjust="spacing" textLength="121" x="407" y="504.2227">Dév. d'application</text><!--MD5=[78c1c779cee1c3970eadef28204613e5]
entity sae22--><polygon fill="#87CEEB" filter="url(#fsriz67xxxyoy)" points="205.5,192.1992,215.5,182.1992,359.5,182.1992,359.5,235.1758,349.5,245.1758,205.5,245.1758,205.5,192.1992" style="stroke:#000000;stroke-width:1.5;"/><line style="stroke:#000000;stroke-width:1.5;" x1="349.5" x2="359.5" y1="192.1992" y2="182.1992"/><line style="stroke:#000000;stroke-width:1.5;" x1="205.5" x2="349.5" y1="192.1992" y2="192.1992"/><line style="stroke:#000000;stroke-width:1.5;" x1="349.5" x2="349.5" y1="192.1992" y2="245.1758"/><text fill="#000000" font-family="sans-serif" font-size="14" lengthAdjust="spacing" textLength="52" x="251.5" y="215.7344">SAE 2.2</text><text fill="#000000" font-family="sans-serif" font-size="14" lengthAdjust="spacing" textLength="114" x="220.5" y="232.2227">Exploration algo</text><!--MD5=[3642ef1f7d792ec884592e1365e78771]
entity sae23--><polygon fill="#87CEEB" filter="url(#fsriz67xxxyoy)" points="1564.5,184.1992,1574.5,174.1992,1718.5,174.1992,1718.5,243.6641,1708.5,253.6641,1564.5,253.6641,1564.5,184.1992" style="stroke:#000000;stroke-width:1.5;"/><line style="stroke:#000000;stroke-width:1.5;" x1="1708.5" x2="1718.5" y1="184.1992" y2="174.1992"/><line style="stroke:#000000;stroke-width:1.5;" x1="1564.5" x2="1708.5" y1="184.1992" y2="184.1992"/><line style="stroke:#000000;stroke-width:1.5;" x1="1708.5" x2="1708.5" y1="184.1992" y2="253.6641"/><text fill="#000000" font-family="sans-serif" font-size="14" lengthAdjust="spacing" textLength="52" x="1610.5" y="207.7344">SAE 2.3</text><text fill="#000000" font-family="sans-serif" font-size="14" lengthAdjust="spacing" textLength="76" x="1596.5" y="224.2227">Installation</text><text fill="#000000" font-family="sans-serif" font-size="14" lengthAdjust="spacing" textLength="114" x="1579.5" y="240.7109">Services réseaux</text><!--MD5=[55455c50b830e655fc49018a378df9dc]
entity sae24--><polygon fill="#87CEEB" filter="url(#fsriz67xxxyoy)" points="743,340.1992,753,330.1992,888,330.1992,888,383.1758,878,393.1758,743,393.1758,743,340.1992" style="stroke:#000000;stroke-width:1.5;"/><line style="stroke:#000000;stroke-width:1.5;" x1="878" x2="888" y1="340.1992" y2="330.1992"/><line style="stroke:#000000;stroke-width:1.5;" x1="743" x2="878" y1="340.1992" y2="340.1992"/><line style="stroke:#000000;stroke-width:1.5;" x1="878" x2="878" y1="340.1992" y2="393.1758"/><text fill="#000000" font-family="sans-serif" font-size="14" lengthAdjust="spacing" textLength="52" x="784.5" y="363.7344">SAE 2.4</text><text fill="#000000" font-family="sans-serif" font-size="14" lengthAdjust="spacing" textLength="105" x="758" y="380.2227">Exploitation BD</text><!--MD5=[1bccca68a8abd4d36777f1f6b8d15065]
entity sae25--><polygon fill="#87CEEB" filter="url(#fsriz67xxxyoy)" points="526,192.1992,536,182.1992,697,182.1992,697,235.1758,687,245.1758,526,245.1758,526,192.1992" style="stroke:#000000;stroke-width:1.5;"/><line style="stroke:#000000;stroke-width:1.5;" x1="687" x2="697" y1="192.1992" y2="182.1992"/><line style="stroke:#000000;stroke-width:1.5;" x1="526" x2="687" y1="192.1992" y2="192.1992"/><line style="stroke:#000000;stroke-width:1.5;" x1="687" x2="687" y1="192.1992" y2="245.1758"/><text fill="#000000" font-family="sans-serif" font-size="14" lengthAdjust="spacing" textLength="52" x="580.5" y="215.7344">SAE 2.5</text><text fill="#000000" font-family="sans-serif" font-size="14" lengthAdjust="spacing" textLength="131" x="541" y="232.2227">Gestion d'un projet</text><!--MD5=[e2427ea3629fd7553ffb97d48df72db2]
entity sae26--><polygon fill="#87CEEB" filter="url(#fsriz67xxxyoy)" points="967,192.1992,977,182.1992,1116,182.1992,1116,235.1758,1106,245.1758,967,245.1758,967,192.1992" style="stroke:#000000;stroke-width:1.5;"/><line style="stroke:#000000;stroke-width:1.5;" x1="1106" x2="1116" y1="192.1992" y2="182.1992"/><line style="stroke:#000000;stroke-width:1.5;" x1="967" x2="1106" y1="192.1992" y2="192.1992"/><line style="stroke:#000000;stroke-width:1.5;" x1="1106" x2="1106" y1="192.1992" y2="245.1758"/><text fill="#000000" font-family="sans-serif" font-size="14" lengthAdjust="spacing" textLength="52" x="1010.5" y="215.7344">SAE 2.6</text><text fill="#000000" font-family="sans-serif" font-size="14" lengthAdjust="spacing" textLength="109" x="982" y="232.2227">Travail d'équipe</text><!--MD5=[9f04f3c03559d4ca976dba5df35765d0]
entity p21--><polygon fill="#87CEEB" filter="url(#fsriz67xxxyoy)" points="1292,192.1992,1302,182.1992,1391,182.1992,1391,235.1758,1381,245.1758,1292,245.1758,1292,192.1992" style="stroke:#000000;stroke-width:1.5;"/><line style="stroke:#000000;stroke-width:1.5;" x1="1381" x2="1391" y1="192.1992" y2="182.1992"/><line style="stroke:#000000;stroke-width:1.5;" x1="1292" x2="1381" y1="192.1992" y2="192.1992"/><line style="stroke:#000000;stroke-width:1.5;" x1="1381" x2="1381" y1="192.1992" y2="245.1758"/><text fill="#000000" font-family="sans-serif" font-size="14" lengthAdjust="spacing" textLength="30" x="1321.5" y="215.7344">P2.1</text><text fill="#000000" font-family="sans-serif" font-size="14" lengthAdjust="spacing" textLength="59" x="1307" y="232.2227">Portfolio</text><!--MD5=[cbf2a705c8c36a956106bd646f097c75]
entity r--><rect fill="#FFFFE0" filter="url(#fsriz67xxxyoy)" height="36.4883" rx="35" ry="35" style="stroke:#000000;stroke-width:1.5;" width="90" x="1741.5" y="44.6992"/><text fill="#000000" font-family="sans-serif" font-size="14" lengthAdjust="spacing" textLength="70" x="1751.5" y="68.2344">Ressource</text><!--MD5=[d8322213e5f4465576b8bf70cd9bce59]
entity s--><polygon fill="#87CEEB" filter="url(#fsriz67xxxyoy)" points="1753.5,200.6992,1763.5,190.6992,1819.5,190.6992,1819.5,227.1875,1809.5,237.1875,1753.5,237.1875,1753.5,200.6992" style="stroke:#000000;stroke-width:1.5;"/><line style="stroke:#000000;stroke-width:1.5;" x1="1809.5" x2="1819.5" y1="200.6992" y2="190.6992"/><line style="stroke:#000000;stroke-width:1.5;" x1="1753.5" x2="1809.5" y1="200.6992" y2="200.6992"/><line style="stroke:#000000;stroke-width:1.5;" x1="1809.5" x2="1809.5" y1="200.6992" y2="237.1875"/><text fill="#000000" font-family="sans-serif" font-size="14" lengthAdjust="spacing" textLength="26" x="1768.5" y="224.2344">SAÉ</text><!--MD5=[c930d2ca2c0fffa1a3b62bcf0c64cf5d]
reverse link sae25 to sae21--><path d="M593.27,250.1092 C565.8,303.4692 514.26,403.5892 488.29,454.0192 " fill="none" id="sae25-backto-sae21" style="stroke:#000000;stroke-width:1.0;stroke-dasharray:7.0,7.0;"/><polygon fill="#000000" points="595.69,245.4092,588.0002,251.5628,593.3913,249.8495,595.1046,255.2407,595.69,245.4092" style="stroke:#000000;stroke-width:1.0;"/><!--MD5=[16e31868b5e04d9d15da251d1a8ec32d]
reverse link sae25 to sae24--><path d="M658.41,248.2692 C692.88,272.9392 739.35,306.1992 772.79,330.1292 " fill="none" id="sae25-backto-sae24" style="stroke:#000000;stroke-width:1.0;stroke-dasharray:7.0,7.0;"/><polygon fill="#000000" points="654.27,245.3092,659.2602,253.8003,658.3358,248.2195,663.9166,247.295,654.27,245.3092" style="stroke:#000000;stroke-width:1.0;"/><!--MD5=[f9a55741af93354b96473fcc4caae0bb]
reverse link sae24 to sae21--><path d="M737.82,390.3292 C682.74,409.9192 609,436.1492 553.24,455.9792 " fill="none" id="sae24-backto-sae21" style="stroke:#000000;stroke-width:1.0;stroke-dasharray:7.0,7.0;"/><polygon fill="#000000" points="742.76,388.5692,732.9407,387.8066,738.0474,390.24,735.614,395.3468,742.76,388.5692" style="stroke:#000000;stroke-width:1.0;"/><!--MD5=[684f5c2ca5a93cc1e59eadd6136cb303]
link r21 to sae21--><path d="M61.69,89.4792 C80.05,150.7192 134.34,306.3292 233.5,393.1992 C276.8,431.1292 337.48,454.0992 386.86,467.5392 " fill="none" id="r21-to-sae21" style="stroke:#000000;stroke-width:1.0;"/><polygon fill="#000000" points="391.91,468.8892,384.2423,462.7081,387.0784,467.6027,382.1838,470.4388,391.91,468.8892" style="stroke:#000000;stroke-width:1.0;"/><text fill="#000000" font-family="sans-serif" font-size="13" lengthAdjust="spacing" textLength="8" x="155.5" y="296.7676">x</text><!--MD5=[bf4ba5c069205966a621b7d7dda86d4a]
link r21 to sae22--><path d="M93.69,89.3092 C131.73,114.1692 189.66,152.0292 231.32,179.2492 " fill="none" id="r21-to-sae22" style="stroke:#000000;stroke-width:1.0;"/><polygon fill="#000000" points="235.55,182.0192,230.1949,173.7535,231.3614,179.2888,225.8261,180.4553,235.55,182.0192" style="stroke:#000000;stroke-width:1.0;"/><text fill="#000000" font-family="sans-serif" font-size="13" lengthAdjust="spacing" textLength="23" x="176.5" y="140.7676">1/2</text><!--MD5=[62258ebd19aaf63e4c09cf89828db0a2]
link r22 to sae21--><path d="M281.24,87.7392 C262.11,98.3592 240.7,111.9192 223.5,127.1992 C179.96,165.8792 162.47,200.6092 187.5,253.1992 C231.87,346.4092 334.16,414.3292 403.32,451.6592 " fill="none" id="r22-to-sae21" style="stroke:#000000;stroke-width:1.0;"/><polygon fill="#000000" points="407.83,454.0692,401.7751,446.3015,403.4194,451.7141,398.0068,453.3584,407.83,454.0692" style="stroke:#000000;stroke-width:1.0;"/><text fill="#000000" font-family="sans-serif" font-size="13" lengthAdjust="spacing" textLength="23" x="217.5" y="296.7676">2/4</text><!--MD5=[52cd3e6f4b70230ff72034467fb87580]
link r22 to sae22--><path d="M293.75,97.3092 C286.3,106.2192 279.53,116.3992 275.5,127.1992 C269.66,142.8692 270.29,161.2492 272.84,176.9392 " fill="none" id="r22-to-sae22" style="stroke:#000000;stroke-width:1.0;"/><polygon fill="#000000" points="273.77,182.1492,276.1102,172.5824,272.8831,177.2285,268.2371,174.0014,273.77,182.1492" style="stroke:#000000;stroke-width:1.0;"/><text fill="#000000" font-family="sans-serif" font-size="13" lengthAdjust="spacing" textLength="8" x="276.5" y="140.7676">x</text><!--MD5=[1b10df8cc9f3c934c6be45580daf9333]
link r22 to sae25--><path d="M379.77,89.8192 C426.83,114.7792 497.94,152.4892 548.98,179.5492 " fill="none" id="r22-to-sae25" style="stroke:#000000;stroke-width:1.0;"/><polygon fill="#000000" points="553.54,181.9692,547.4655,174.2168,549.1235,179.6252,543.7151,181.2832,553.54,181.9692" style="stroke:#000000;stroke-width:1.0;"/><text fill="#000000" font-family="sans-serif" font-size="13" lengthAdjust="spacing" textLength="8" x="480.5" y="140.7676">x</text><!--MD5=[d319baa0347b6da309b6be57c3670f98]
link r23 to sae21--><path d="M473.44,89.3992 C473.27,161.4592 472.78,365.5792 472.59,448.7592 " fill="none" id="r23-to-sae21" style="stroke:#000000;stroke-width:1.0;"/><polygon fill="#000000" points="472.57,454.0592,476.5957,445.0707,472.5843,449.0592,468.5957,445.0478,472.57,454.0592" style="stroke:#000000;stroke-width:1.0;"/><text fill="#000000" font-family="sans-serif" font-size="13" lengthAdjust="spacing" textLength="23" x="474.5" y="296.7676">2/4</text><!--MD5=[6b371f4bc01400de76787c840372d561]
link r23 to sae22--><path d="M414.67,89.3692 C408.54,92.0192 402.4,94.6692 396.5,97.1992 C365.02,110.6992 350.51,103.7892 325.5,127.1992 C310.97,140.7892 300.63,160.3792 293.73,177.3692 " fill="none" id="r23-to-sae22" style="stroke:#000000;stroke-width:1.0;"/><polygon fill="#000000" points="291.88,182.0892,298.8926,175.1737,293.7074,177.4351,291.446,172.2499,291.88,182.0892" style="stroke:#000000;stroke-width:1.0;"/><text fill="#000000" font-family="sans-serif" font-size="13" lengthAdjust="spacing" textLength="8" x="326.5" y="140.7676">x</text><!--MD5=[18e7594abfa91e05f98ffa604ef0b3dc]
link r23 to sae25--><path d="M497.22,89.3092 C519.92,113.8192 554.32,150.9592 579.44,178.0892 " fill="none" id="r23-to-sae25" style="stroke:#000000;stroke-width:1.0;"/><polygon fill="#000000" points="583.08,182.0192,579.8996,172.698,579.6827,178.3507,574.03,178.1337,583.08,182.0192" style="stroke:#000000;stroke-width:1.0;"/><text fill="#000000" font-family="sans-serif" font-size="13" lengthAdjust="spacing" textLength="8" x="548.5" y="140.7676">x</text><!--MD5=[61012c57747cf428ce0d0b0079047a99]
link r24 to sae23--><path d="M1559.55,97.5092 C1574.79,118.9292 1594.64,146.8192 1610.98,169.7992 " fill="none" id="r24-to-sae23" style="stroke:#000000;stroke-width:1.0;"/><polygon fill="#000000" points="1613.99,174.0292,1612.0426,164.3748,1611.096,169.9519,1605.5189,169.0053,1613.99,174.0292" style="stroke:#000000;stroke-width:1.0;"/><text fill="#000000" font-family="sans-serif" font-size="13" lengthAdjust="spacing" textLength="23" x="1593.5" y="140.7676">2/0</text><!--MD5=[dee2372ba94147db169dfd7a70e4ca66]
link r25 to sae23--><path d="M1651.55,97.5092 C1649.7,118.6592 1647.31,146.1292 1645.32,168.9392 " fill="none" id="r25-to-sae23" style="stroke:#000000;stroke-width:1.0;"/><polygon fill="#000000" points="1644.87,174.0292,1649.6528,165.4196,1645.3136,169.0489,1641.6843,164.7098,1644.87,174.0292" style="stroke:#000000;stroke-width:1.0;"/><text fill="#000000" font-family="sans-serif" font-size="13" lengthAdjust="spacing" textLength="23" x="1650.5" y="140.7676">2/2</text><!--MD5=[f82541fcf038005789d2ec5b3e3c9fe4]
link r26 to sae24--><path d="M1425.71,245.0892 C1419.98,247.9992 1414.17,250.7692 1408.5,253.1992 C1343.91,280.9192 1326.11,284.9392 1257.5,300.1992 C1131.48,328.2292 982.19,345.4092 893.35,353.9792 " fill="none" id="r26-to-sae24" style="stroke:#000000;stroke-width:1.0;"/><polygon fill="#000000" points="888.12,354.4792,897.4566,357.6142,893.0978,354.0085,896.7035,349.6498,888.12,354.4792" style="stroke:#000000;stroke-width:1.0;"/><text fill="#000000" font-family="sans-serif" font-size="13" lengthAdjust="spacing" textLength="23" x="1328.5" y="296.7676">2/2</text><!--MD5=[8464c600142e5c5d80d218df654e692b]
link r27 to sae22--><path d="M567.73,88.5492 C561.77,91.7592 555.57,94.7692 549.5,97.1992 C495.25,118.9192 475.52,104.9392 421.5,127.1992 C388.55,140.7692 354.43,161.6492 328.24,179.3692 " fill="none" id="r27-to-sae22" style="stroke:#000000;stroke-width:1.0;"/><polygon fill="#000000" points="324.1,182.1892,333.7896,180.4251,328.2314,179.373,329.2836,173.8148,324.1,182.1892" style="stroke:#000000;stroke-width:1.0;"/><text fill="#000000" font-family="sans-serif" font-size="13" lengthAdjust="spacing" textLength="23" x="422.5" y="140.7676">0/3</text><!--MD5=[70bc5e8a30313400feb0a48bd59d409a]
link r27 to sae25--><path d="M606.52,89.4492 C606.61,105.2492 606.85,125.8992 607.5,144.1992 C607.88,154.8392 608.48,166.3992 609.1,176.9392 " fill="none" id="r27-to-sae25" style="stroke:#000000;stroke-width:1.0;"/><polygon fill="#000000" points="609.41,182.0192,612.8622,172.7952,609.1097,177.0282,604.8767,173.2757,609.41,182.0192" style="stroke:#000000;stroke-width:1.0;"/><text fill="#000000" font-family="sans-serif" font-size="13" lengthAdjust="spacing" textLength="8" x="608.5" y="140.7676">x</text><!--MD5=[e627a168a9c74d827abc3b69d9df0bb7]
link r28 to sae24--><path d="M740.17,97.4792 C756.34,154.0092 788.75,267.2292 805.28,324.9992 " fill="none" id="r28-to-sae24" style="stroke:#000000;stroke-width:1.0;"/><polygon fill="#000000" points="806.74,330.0792,808.0868,320.3229,805.3532,325.2754,800.4007,322.5418,806.74,330.0792" style="stroke:#000000;stroke-width:1.0;"/><text fill="#000000" font-family="sans-serif" font-size="13" lengthAdjust="spacing" textLength="23" x="785.5" y="218.7676">2/4</text><!--MD5=[62f975f20cd3b25313cbc9ec6d94d000]
link r28 to sae26--><path d="M781.33,88.8392 C787.12,91.6692 792.93,94.5092 798.5,97.1992 C856.85,125.4392 923.34,156.9992 972.01,179.9892 " fill="none" id="r28-to-sae26" style="stroke:#000000;stroke-width:1.0;"/><polygon fill="#000000" points="976.66,182.1792,970.2448,174.7063,972.1431,180.0351,966.8142,181.9334,976.66,182.1792" style="stroke:#000000;stroke-width:1.0;"/><text fill="#000000" font-family="sans-serif" font-size="13" lengthAdjust="spacing" textLength="8" x="893.5" y="140.7676">x</text><!--MD5=[256f04a39a5a529eef1650925813da82]
link r29 to sae22--><path d="M213.25,97.2392 C221.1,111.7892 230.56,128.9492 239.5,144.1992 C245.9,155.1192 253.13,166.8392 259.8,177.4392 " fill="none" id="r29-to-sae22" style="stroke:#000000;stroke-width:1.0;"/><polygon fill="#000000" points="262.62,181.9092,261.1948,172.164,259.9495,177.6821,254.4314,176.4368,262.62,181.9092" style="stroke:#000000;stroke-width:1.0;"/><text fill="#000000" font-family="sans-serif" font-size="13" lengthAdjust="spacing" textLength="23" x="240.5" y="140.7676">0/3</text><!--MD5=[dbd9638eacc9c7b320ef53baf43fc082]
link r210 to sae24--><path d="M857.15,97.4792 C848.21,154.0092 830.29,267.2292 821.15,324.9992 " fill="none" id="r210-to-sae24" style="stroke:#000000;stroke-width:1.0;"/><polygon fill="#000000" points="820.35,330.0792,825.7133,321.8188,821.1349,325.1412,817.8125,320.5629,820.35,330.0792" style="stroke:#000000;stroke-width:1.0;"/><text fill="#000000" font-family="sans-serif" font-size="13" lengthAdjust="spacing" textLength="23" x="845.5" y="218.7676">2/0</text><!--MD5=[b68aac6080cdd97157c541868a4e81e5]
link r210 to sae25--><path d="M816.33,89.7392 C810.44,92.4992 804.4,95.0692 798.5,97.1992 C738.23,118.9192 708.76,88.7592 657.5,127.1992 C640.98,139.5892 629.74,159.6892 622.51,177.2992 " fill="none" id="r210-to-sae25" style="stroke:#000000;stroke-width:1.0;"/><polygon fill="#000000" points="620.57,182.1892,627.6009,175.2924,622.4097,177.54,620.1621,172.3488,620.57,182.1892" style="stroke:#000000;stroke-width:1.0;"/><text fill="#000000" font-family="sans-serif" font-size="13" lengthAdjust="spacing" textLength="31" x="658.5" y="140.7676">2/10</text><!--MD5=[9f8367a73adfe97e0382859c491c5a90]
link r210 to sae26--><path d="M895.43,97.3192 C910.54,112.1992 928.96,129.5892 946.5,144.1992 C960.78,156.0892 976.98,168.2292 991.9,178.9092 " fill="none" id="r210-to-sae26" style="stroke:#000000;stroke-width:1.0;"/><polygon fill="#000000" points="996.07,181.8892,991.0601,173.4098,991.9975,178.9884,986.4188,179.9258,996.07,181.8892" style="stroke:#000000;stroke-width:1.0;"/><text fill="#000000" font-family="sans-serif" font-size="13" lengthAdjust="spacing" textLength="8" x="947.5" y="140.7676">x</text><!--MD5=[dc5d267b9421c66057a86349b4f146da]
link r211 to sae26--><path d="M1101.95,89.3092 C1090.04,113.6192 1072.05,150.3492 1058.78,177.4192 " fill="none" id="r211-to-sae26" style="stroke:#000000;stroke-width:1.0;"/><polygon fill="#000000" points="1056.53,182.0192,1064.0844,175.7001,1058.7317,177.5301,1056.9017,172.1774,1056.53,182.0192" style="stroke:#000000;stroke-width:1.0;"/><text fill="#000000" font-family="sans-serif" font-size="13" lengthAdjust="spacing" textLength="8" x="1083.5" y="140.7676">x</text><!--MD5=[669b279769b3343151a2b9cd1db3d69c]
link r212 to sae23--><path d="M1271.82,88.3792 C1278.34,91.5392 1285.03,94.5792 1291.5,97.1992 C1346.37,119.4092 1490.68,154.5092 1546.5,174.1992 C1550.81,175.7192 1555.22,177.3292 1559.65,178.9792 " fill="none" id="r212-to-sae23" style="stroke:#000000;stroke-width:1.0;"/><polygon fill="#000000" points="1564.47,180.7892,1557.4545,173.8767,1559.7901,179.0289,1554.638,181.3645,1564.47,180.7892" style="stroke:#000000;stroke-width:1.0;"/><text fill="#000000" font-family="sans-serif" font-size="13" lengthAdjust="spacing" textLength="23" x="1444.5" y="140.7676">0/2</text><!--MD5=[869e1d42071ce8f14248c83ffe66fdb9]
link r212 to sae24--><path d="M1254.53,97.5292 C1263.06,111.9792 1268.53,128.9792 1261.5,144.1992 C1230.17,212.0292 1198.5,216.3492 1133.5,253.1992 C1056.91,296.6092 959.98,326.2192 893.38,343.1992 " fill="none" id="r212-to-sae24" style="stroke:#000000;stroke-width:1.0;"/><polygon fill="#000000" points="888.24,344.5092,897.9461,346.1801,893.0873,343.2831,895.9843,338.4244,888.24,344.5092" style="stroke:#000000;stroke-width:1.0;"/><text fill="#000000" font-family="sans-serif" font-size="13" lengthAdjust="spacing" textLength="23" x="1246.5" y="218.7676">0/2</text><!--MD5=[c6f4fbda1985964aedee1887c46c7a2d]
link r212 to sae25--><path d="M1181.22,88.4792 C1174.7,91.6192 1167.99,94.6292 1161.5,97.1992 C1152.64,100.7092 1005.85,142.3692 996.5,144.1992 C877.15,167.6092 843.21,147.7592 724.5,174.1992 C716.37,176.0092 708.02,178.1992 699.7,180.5992 " fill="none" id="r212-to-sae25" style="stroke:#000000;stroke-width:1.0;"/><polygon fill="#000000" points="694.53,182.1292,704.2946,183.4146,699.325,180.7122,702.0274,175.7426,694.53,182.1292" style="stroke:#000000;stroke-width:1.0;"/><text fill="#000000" font-family="sans-serif" font-size="13" lengthAdjust="spacing" textLength="8" x="1057.5" y="140.7676">x</text><!--MD5=[1d252024c4c32dc9f47649eb72960e57]
link r212 to sae26--><path d="M1181.23,93.5892 C1166.36,103.8492 1149.95,115.6592 1135.5,127.1992 C1115.46,143.1892 1094.25,162.2892 1077.05,178.3692 " fill="none" id="r212-to-sae26" style="stroke:#000000;stroke-width:1.0;"/><polygon fill="#000000" points="1073.22,181.9592,1082.5216,178.7219,1076.8677,178.5395,1077.0501,172.8856,1073.22,181.9592" style="stroke:#000000;stroke-width:1.0;"/><text fill="#000000" font-family="sans-serif" font-size="13" lengthAdjust="spacing" textLength="8" x="1136.5" y="140.7676">x</text><!--MD5=[79f7af7105e2c5d44bcea277ab83dbb0]
link r213 to sae23--><path d="M1045.95,89.2592 C1052.75,92.2092 1059.72,94.9592 1066.5,97.1992 C1118.3,114.3392 1253.62,135.5692 1307.5,144.1992 C1413.21,161.1192 1442.9,147.1992 1546.5,174.1992 C1550.71,175.2992 1554.98,176.5392 1559.26,177.8792 " fill="none" id="r213-to-sae23" style="stroke:#000000;stroke-width:1.0;"/><polygon fill="#000000" points="1564.29,179.4992,1556.9451,172.9377,1559.5297,177.9696,1554.4978,180.5542,1564.29,179.4992" style="stroke:#000000;stroke-width:1.0;"/><text fill="#000000" font-family="sans-serif" font-size="13" lengthAdjust="spacing" textLength="23" x="1308.5" y="140.7676">0/2</text><!--MD5=[ce07bbe5ab6f16ba826bc0b9aeecc129]
link r213 to sae25--><path d="M943.62,89.2792 C937.54,92.0292 931.41,94.7292 925.5,97.1992 C903.97,106.2192 785.73,149.4292 700.68,180.3492 " fill="none" id="r213-to-sae25" style="stroke:#000000;stroke-width:1.0;"/><polygon fill="#000000" points="695.89,182.0892,705.7158,182.7631,700.5873,180.3759,702.9745,175.2474,695.89,182.0892" style="stroke:#000000;stroke-width:1.0;"/><text fill="#000000" font-family="sans-serif" font-size="13" lengthAdjust="spacing" textLength="8" x="844.5" y="140.7676">x</text><!--MD5=[d22b3a43dcfc1a4d16844d022ea92baa]
link r213 to sae26--><path d="M977.15,89.4192 C967.6,105.3892 959.65,126.2292 967.5,144.1992 C973.12,157.0592 982.47,168.5792 992.67,178.3392 " fill="none" id="r213-to-sae26" style="stroke:#000000;stroke-width:1.0;"/><polygon fill="#000000" points="996.47,181.8592,992.5845,172.8092,992.8015,178.4619,987.1488,178.6789,996.47,181.8592" style="stroke:#000000;stroke-width:1.0;"/><text fill="#000000" font-family="sans-serif" font-size="13" lengthAdjust="spacing" textLength="23" x="968.5" y="140.7676">2/0</text><!--MD5=[e98c532e9bc9bf833260b11511d3e209]
link r214 to sae26--><path d="M1309.34,85.6092 C1302.69,89.8392 1295.52,93.9592 1288.5,97.1992 C1245.21,117.1792 1229.24,108.2092 1185.5,127.1992 C1152.46,141.5392 1117.68,162.0192 1090.58,179.3492 " fill="none" id="r214-to-sae26" style="stroke:#000000;stroke-width:1.0;"/><polygon fill="#000000" points="1086.3,182.0992,1096.0359,180.6121,1090.5101,179.4019,1091.7203,173.876,1086.3,182.0992" style="stroke:#000000;stroke-width:1.0;"/><text fill="#000000" font-family="sans-serif" font-size="13" lengthAdjust="spacing" textLength="8" x="1186.5" y="140.7676">x</text><!--MD5=[66ef1d3bb8cdd9fbc37320bc99f072ad]
link r214 to p21--><path d="M1339.84,89.3092 C1340.17,113.4192 1340.65,149.7392 1341.02,176.7492 " fill="none" id="r214-to-p21" style="stroke:#000000;stroke-width:1.0;"/><polygon fill="#000000" points="1341.09,182.0192,1344.961,172.963,1341.0186,177.0197,1336.9618,173.0773,1341.09,182.0192" style="stroke:#000000;stroke-width:1.0;"/><text fill="#000000" font-family="sans-serif" font-size="13" lengthAdjust="spacing" textLength="31" x="1342.5" y="140.7676">0/10</text><!--MD5=[83f07c80460ebf22ea7152e1bc3b1282]
link r to s--><path d="M1786.5,80.7892 C1786.5,106.3692 1786.5,154.8592 1786.5,185.3892 " fill="none" id="r-to-s" style="stroke:#000000;stroke-width:1.0;"/><polygon fill="#000000" points="1786.5,190.4992,1790.5,181.4992,1786.5,185.4992,1782.5,181.4992,1786.5,190.4992" style="stroke:#000000;stroke-width:1.0;"/><text fill="#000000" font-family="sans-serif" font-size="13" lengthAdjust="spacing" textLength="40" x="1787.5" y="140.7676">TD/TP</text><!--MD5=[08a3ad32c1697f52d51f8cba2f041276]
@startuml buts2

!include config.plantuml
'!include competences.plantuml

'!include sae.plantuml

'- - - - - - - - - - - Ressources
storage "R2.01\nDev. objets" as r21
storage "R2.02\nDev. d'apps\navec IHM" as r22
storage "R2.03\nQualitéde dev." as r23
storage "R2.04\nRéseau &\nbas niveau" as r24
storage "R2.05\nServices\nréseau" as r25
storage "R2.06\nExploitation\nBD" as r26
storage "R2.07\nGraphes" as r27
storage "R2.08\nStats\ndescriptives" as r28
storage "R2.09\nMéthodes\nnumériques" as r29
storage "R2.10\nGestion\nproj. orga." as r210
storage "R2.11\nDroit" as r211
storage "R2.12\nAnglais\nentreprise" as r212
storage "R2.13\nComm. prof." as r213
storage "R2.14\nPPP" as r214

'- - - - - - - - - - - SAÉs
node "SAE 2.1\nDév. d'application" as sae21 
node "SAE 2.2\nExploration algo" as sae22 
node "SAE 2.3\nInstallation \nServices réseaux" as sae23
node "SAE 2.4\nExploitation BD" as sae24 
node "SAE 2.5\nGestion d'un projet" as sae25 
node "SAE 2.6\nTravail d'équipe" as sae26 

node "P2.1\nPortfolio" as p21

'- - - - - - - - - - - Chronologie des SAÉ

sae25 <.. sae21
sae25 <.. sae24
sae24 <.. sae21

'- - - - - - - - - - - Graphe
title Info - S2 v.0.1



r21 - -> sae21 : x
r21 - -> sae22 : 1/2
r22 - -> sae21 : 2/4
r22 - -> sae22 : x
r22 - -> sae25 : x
r23 - -> sae21 : 2/4
r23 - -> sae22 : x
r23 - -> sae25 : x
r24 - -> sae23 : 2/0
r25 - -> sae23 : 2/2
r26 - -> sae24 : 2/2
r27 - -> sae22 : 0/3
r27 - -> sae25 : x
r28 - -> sae24 : 2/4
r28 - -> sae26 : x
r29 - -> sae22 : 0/3
r210 - -> sae24 : 2/0
r210 - -> sae25 : 2/10
r210 - -> sae26 : x
r211 - -> sae26 : x
r212 - -> sae23 : 0/2
r212 - -> sae24 : 0/2
r212 - -> sae25 : x
r212 - -> sae26 : x
r213 - -> sae23 : 0/2
r213 - -> sae25 : x
r213 - -> sae26 : 2/0
r214 - -> sae26 : x
r214 - -> p21 : 0/10


'- - - Legend- - -
storage Ressource as r
node SAÉ as s
r - -> s : TD/TP

' Astuce cachée pour mettre la 14 à gauche de la 15
'sae23 -[hidden]> r
@enduml

@startuml buts2

hide circle
hide empty members
hide methods	


skinparam defaultTextAlignment center

skinparam storage {
  BackgroundColor Lightyellow
}

skinparam node {
  BackgroundColor Skyblue
}

skinparam rectangle {
  BackgroundColor Lightgreen
  BorderColor Black
}

skinparam arrow {
    Color<<ac>> Black
}

skinparam package {
	BackgroundColor empty
	BorderColor DarkSlateGray
	ArrowColor Black
	FontColor Black
	FontSize 12
	FontName TrebuchetMS
}
skinparam roundcorner 10

skinparam class {
	BackgroundColor AliceBlue
	BorderColor DarkSlateGray
	ArrowColor Black
	FontColor Black
	FontSize 12
	FontName TrebuchetMS
}
skinparam arrow {
    MessageAlign center
}








storage "R2.01\nDev. objets" as r21
storage "R2.02\nDev. d'apps\navec IHM" as r22
storage "R2.03\nQualitéde dev." as r23
storage "R2.04\nRéseau &\nbas niveau" as r24
storage "R2.05\nServices\nréseau" as r25
storage "R2.06\nExploitation\nBD" as r26
storage "R2.07\nGraphes" as r27
storage "R2.08\nStats\ndescriptives" as r28
storage "R2.09\nMéthodes\nnumériques" as r29
storage "R2.10\nGestion\nproj. orga." as r210
storage "R2.11\nDroit" as r211
storage "R2.12\nAnglais\nentreprise" as r212
storage "R2.13\nComm. prof." as r213
storage "R2.14\nPPP" as r214

node "SAE 2.1\nDév. d'application" as sae21 
node "SAE 2.2\nExploration algo" as sae22 
node "SAE 2.3\nInstallation \nServices réseaux" as sae23
node "SAE 2.4\nExploitation BD" as sae24 
node "SAE 2.5\nGestion d'un projet" as sae25 
node "SAE 2.6\nTravail d'équipe" as sae26 

node "P2.1\nPortfolio" as p21


sae25 <.. sae21
sae25 <.. sae24
sae24 <.. sae21

title Info - S2 v.0.1



r21 - -> sae21 : x
r21 - -> sae22 : 1/2
r22 - -> sae21 : 2/4
r22 - -> sae22 : x
r22 - -> sae25 : x
r23 - -> sae21 : 2/4
r23 - -> sae22 : x
r23 - -> sae25 : x
r24 - -> sae23 : 2/0
r25 - -> sae23 : 2/2
r26 - -> sae24 : 2/2
r27 - -> sae22 : 0/3
r27 - -> sae25 : x
r28 - -> sae24 : 2/4
r28 - -> sae26 : x
r29 - -> sae22 : 0/3
r210 - -> sae24 : 2/0
r210 - -> sae25 : 2/10
r210 - -> sae26 : x
r211 - -> sae26 : x
r212 - -> sae23 : 0/2
r212 - -> sae24 : 0/2
r212 - -> sae25 : x
r212 - -> sae26 : x
r213 - -> sae23 : 0/2
r213 - -> sae25 : x
r213 - -> sae26 : 2/0
r214 - -> sae26 : x
r214 - -> p21 : 0/10


storage Ressource as r
node SAÉ as s
r - -> s : TD/TP

@enduml

PlantUML version 1.2021.2beta14(Unknown compile time)
(GPL source distribution)
Java Runtime: OpenJDK Runtime Environment
JVM: OpenJDK 64-Bit Server VM
Default Encoding: UTF-8
Language: fr
Country: FR
--></g></svg>