<?xml version="1.0" encoding="UTF-8" standalone="no"?><svg xmlns="http://www.w3.org/2000/svg" xmlns:xlink="http://www.w3.org/1999/xlink" contentScriptType="application/ecmascript" contentStyleType="text/css" height="318px" preserveAspectRatio="none" style="width:482px;height:318px;background:#FFFFFF;" version="1.1" viewBox="0 0 482 318" width="482px" zoomAndPan="magnify"><defs/><g><rect fill="none" height="26.4883" style="stroke:none;stroke-width:1.0;" width="131" x="116" y="5"/><text fill="#000000" font-family="sans-serif" font-size="14" font-weight="bold" lengthAdjust="spacing" textLength="121" x="121" y="23.5352">SAE S2.01/04/05</text><text fill="#000000" font-family="Serif" font-size="10" lengthAdjust="spacing" textLength="10" x="5" y="60.9883">11</text><text fill="#000000" font-family="Serif" font-size="10" lengthAdjust="spacing" textLength="10" x="33" y="60.9883">12</text><text fill="#000000" font-family="Serif" font-size="10" lengthAdjust="spacing" textLength="10" x="61" y="60.9883">13</text><text fill="#000000" font-family="Serif" font-size="10" lengthAdjust="spacing" textLength="10" x="89" y="60.9883">14</text><text fill="#000000" font-family="Serif" font-size="10" lengthAdjust="spacing" textLength="10" x="117" y="60.9883">15</text><text fill="#000000" font-family="Serif" font-size="10" lengthAdjust="spacing" textLength="10" x="145" y="60.9883">16</text><text fill="#000000" font-family="Serif" font-size="10" lengthAdjust="spacing" textLength="10" x="173" y="60.9883">17</text><text fill="#000000" font-family="Serif" font-size="10" lengthAdjust="spacing" textLength="10" x="201" y="60.9883">18</text><text fill="#000000" font-family="Serif" font-size="10" lengthAdjust="spacing" textLength="10" x="229" y="60.9883">19</text><text fill="#000000" font-family="Serif" font-size="10" lengthAdjust="spacing" textLength="10" x="257" y="60.9883">20</text><text fill="#000000" font-family="Serif" font-size="10" lengthAdjust="spacing" textLength="10" x="285" y="60.9883">21</text><text fill="#000000" font-family="Serif" font-size="10" lengthAdjust="spacing" textLength="10" x="313" y="60.9883">22</text><text fill="#000000" font-family="Serif" font-size="10" lengthAdjust="spacing" textLength="10" x="341" y="60.9883">23</text><line style="stroke:#C0C0C0;stroke-width:1.0;" x1="0" x2="0" y1="53.4883" y2="300.9941"/><line style="stroke:#C0C0C0;stroke-width:1.0;" x1="28" x2="28" y1="53.4883" y2="300.9941"/><line style="stroke:#C0C0C0;stroke-width:1.0;" x1="56" x2="56" y1="53.4883" y2="300.9941"/><line style="stroke:#C0C0C0;stroke-width:1.0;" x1="84" x2="84" y1="53.4883" y2="300.9941"/><line style="stroke:#C0C0C0;stroke-width:1.0;" x1="112" x2="112" y1="53.4883" y2="300.9941"/><line style="stroke:#C0C0C0;stroke-width:1.0;" x1="140" x2="140" y1="53.4883" y2="300.9941"/><line style="stroke:#C0C0C0;stroke-width:1.0;" x1="168" x2="168" y1="53.4883" y2="300.9941"/><line style="stroke:#C0C0C0;stroke-width:1.0;" x1="196" x2="196" y1="53.4883" y2="300.9941"/><line style="stroke:#C0C0C0;stroke-width:1.0;" x1="224" x2="224" y1="53.4883" y2="300.9941"/><line style="stroke:#C0C0C0;stroke-width:1.0;" x1="252" x2="252" y1="53.4883" y2="300.9941"/><line style="stroke:#C0C0C0;stroke-width:1.0;" x1="280" x2="280" y1="53.4883" y2="300.9941"/><line style="stroke:#C0C0C0;stroke-width:1.0;" x1="308" x2="308" y1="53.4883" y2="300.9941"/><line style="stroke:#C0C0C0;stroke-width:1.0;" x1="336" x2="336" y1="53.4883" y2="300.9941"/><line style="stroke:#C0C0C0;stroke-width:1.0;" x1="364" x2="364" y1="53.4883" y2="300.9941"/><line style="stroke:#C0C0C0;stroke-width:1.0;" x1="0" x2="0" y1="37.4883" y2="53.4883"/><line style="stroke:#C0C0C0;stroke-width:1.0;" x1="72" x2="72" y1="37.4883" y2="53.4883"/><text fill="#000000" font-family="Serif" font-size="12" font-weight="bold" lengthAdjust="spacing" textLength="49" x="11.5" y="46.4883">Mar 2022</text><line style="stroke:#C0C0C0;stroke-width:1.0;" x1="192" x2="192" y1="37.4883" y2="53.4883"/><text fill="#000000" font-family="Serif" font-size="12" font-weight="bold" lengthAdjust="spacing" textLength="48" x="108" y="46.4883">Apr 2022</text><line style="stroke:#C0C0C0;stroke-width:1.0;" x1="316" x2="316" y1="37.4883" y2="53.4883"/><text fill="#000000" font-family="Serif" font-size="12" font-weight="bold" lengthAdjust="spacing" textLength="50" x="229" y="46.4883">May 2022</text><line style="stroke:#C0C0C0;stroke-width:1.0;" x1="364" x2="364" y1="37.4883" y2="53.4883"/><text fill="#000000" font-family="Serif" font-size="12" font-weight="bold" lengthAdjust="spacing" textLength="47" x="316.5" y="46.4883">Jun 2022</text><line style="stroke:#C0C0C0;stroke-width:1.0;" x1="0" x2="364" y1="37.4883" y2="37.4883"/><line style="stroke:#C0C0C0;stroke-width:1.0;" x1="0" x2="364" y1="53.4883" y2="53.4883"/><line style="stroke:#C0C0C0;stroke-width:1.0;" x1="0" x2="364" y1="66.4883" y2="66.4883"/><line style="stroke:#A80036;stroke-width:1.5;" x1="82" x2="82" y1="114.3984" y2="124.876"/><line style="stroke:#A80036;stroke-width:1.5;" x1="82" x2="139" y1="124.876" y2="124.876"/><polygon fill="#A80036" points="135,120.876,135,124.876,135,128.876,139,124.876" style="stroke:#A80036;stroke-width:1.5;"/><line style="stroke:#A80036;stroke-width:1.5;" x1="166" x2="166" y1="131.3535" y2="141.8311"/><line style="stroke:#A80036;stroke-width:1.5;" x1="166" x2="307" y1="141.8311" y2="141.8311"/><polygon fill="#A80036" points="303,137.8311,303,141.8311,303,145.8311,307,141.8311" style="stroke:#A80036;stroke-width:1.5;"/><line style="stroke:#A80036;stroke-width:1.5;" x1="327" x2="327" y1="148.3086" y2="158.7861"/><line style="stroke:#A80036;stroke-width:1.5;" x1="327" x2="335" y1="158.7861" y2="158.7861"/><polygon fill="#A80036" points="331,154.7861,331,158.7861,331,162.7861,335,158.7861" style="stroke:#A80036;stroke-width:1.5;"/><line style="stroke:#A80036;stroke-width:1.5;" x1="75" x2="75" y1="114.3984" y2="208.6963"/><line style="stroke:#A80036;stroke-width:1.5;" x1="75" x2="83" y1="208.6963" y2="208.6963"/><polygon fill="#A80036" points="79,204.6963,79,208.6963,79,212.6963,83,208.6963" style="stroke:#A80036;stroke-width:1.5;"/><line style="stroke:#A80036;stroke-width:1.5;" x1="166" x2="166" y1="215.1738" y2="225.6514"/><line style="stroke:#A80036;stroke-width:1.5;" x1="166" x2="279" y1="225.6514" y2="225.6514"/><polygon fill="#A80036" points="275,221.6514,275,225.6514,275,229.6514,279,225.6514" style="stroke:#A80036;stroke-width:1.5;"/><line style="stroke:#A80036;stroke-width:1.5;" x1="166" x2="166" y1="215.1738" y2="275.5615"/><line style="stroke:#A80036;stroke-width:1.5;" x1="166" x2="223" y1="275.5615" y2="275.5615"/><polygon fill="#A80036" points="219,271.5615,219,275.5615,219,279.5615,223,275.5615" style="stroke:#A80036;stroke-width:1.5;"/><line style="stroke:#A80036;stroke-width:1.5;" x1="299" x2="299" y1="282.0391" y2="292.5166"/><line style="stroke:#A80036;stroke-width:1.5;" x1="299" x2="307" y1="292.5166" y2="292.5166"/><polygon fill="#A80036" points="303,288.5166,303,292.5166,303,296.5166,307,292.5166" style="stroke:#A80036;stroke-width:1.5;"/><line style="stroke:#000000;stroke-width:1.0;" x1="0" x2="5" y1="82.9658" y2="82.9658"/><line style="stroke:#000000;stroke-width:1.0;" x1="68" x2="363" y1="82.9658" y2="82.9658"/><rect fill="#FEFECE" height="12.9551" style="stroke:none;stroke-width:1.0;" width="80" x="2" y="101.4434"/><line style="stroke:#A80036;stroke-width:1.0;" x1="2" x2="82" y1="101.4434" y2="101.4434"/><line style="stroke:#A80036;stroke-width:1.0;" x1="2" x2="82" y1="114.3984" y2="114.3984"/><line style="stroke:#A80036;stroke-width:1.0;" x1="2" x2="2" y1="101.4434" y2="114.3984"/><line style="stroke:#A80036;stroke-width:1.0;" x1="82" x2="82" y1="101.4434" y2="114.3984"/><rect fill="#FEFECE" height="12.9551" style="stroke:none;stroke-width:1.0;" width="24" x="142" y="118.3984"/><line style="stroke:#A80036;stroke-width:1.0;" x1="142" x2="166" y1="118.3984" y2="118.3984"/><line style="stroke:#A80036;stroke-width:1.0;" x1="142" x2="166" y1="131.3535" y2="131.3535"/><line style="stroke:#A80036;stroke-width:1.0;" x1="142" x2="142" y1="118.3984" y2="131.3535"/><line style="stroke:#A80036;stroke-width:1.0;" x1="166" x2="166" y1="118.3984" y2="131.3535"/><rect fill="#FEFECE" height="12.9551" style="stroke:none;stroke-width:1.0;" width="24" x="310" y="135.3535"/><line style="stroke:#A80036;stroke-width:1.0;" x1="310" x2="334" y1="135.3535" y2="135.3535"/><line style="stroke:#A80036;stroke-width:1.0;" x1="310" x2="334" y1="148.3086" y2="148.3086"/><line style="stroke:#A80036;stroke-width:1.0;" x1="310" x2="310" y1="135.3535" y2="148.3086"/><line style="stroke:#A80036;stroke-width:1.0;" x1="334" x2="334" y1="135.3535" y2="148.3086"/><rect fill="#FEFECE" height="12.9551" style="stroke:none;stroke-width:1.0;" width="24" x="338" y="152.3086"/><line style="stroke:#A80036;stroke-width:1.0;" x1="338" x2="362" y1="152.3086" y2="152.3086"/><line style="stroke:#A80036;stroke-width:1.0;" x1="338" x2="362" y1="165.2637" y2="165.2637"/><line style="stroke:#A80036;stroke-width:1.0;" x1="338" x2="338" y1="152.3086" y2="165.2637"/><line style="stroke:#A80036;stroke-width:1.0;" x1="362" x2="362" y1="152.3086" y2="165.2637"/><line style="stroke:#000000;stroke-width:1.0;" x1="0" x2="5" y1="183.7412" y2="183.7412"/><line style="stroke:#000000;stroke-width:1.0;" x1="68" x2="363" y1="183.7412" y2="183.7412"/><rect fill="#FEFECE" height="12.9551" style="stroke:none;stroke-width:1.0;" width="80" x="86" y="202.2188"/><line style="stroke:#A80036;stroke-width:1.0;" x1="86" x2="166" y1="202.2188" y2="202.2188"/><line style="stroke:#A80036;stroke-width:1.0;" x1="86" x2="166" y1="215.1738" y2="215.1738"/><line style="stroke:#A80036;stroke-width:1.0;" x1="86" x2="86" y1="202.2188" y2="215.1738"/><line style="stroke:#A80036;stroke-width:1.0;" x1="166" x2="166" y1="202.2188" y2="215.1738"/><rect fill="#FEFECE" height="12.9551" style="stroke:none;stroke-width:1.0;" width="52" x="282" y="219.1738"/><line style="stroke:#A80036;stroke-width:1.0;" x1="282" x2="334" y1="219.1738" y2="219.1738"/><line style="stroke:#A80036;stroke-width:1.0;" x1="282" x2="334" y1="232.1289" y2="232.1289"/><line style="stroke:#A80036;stroke-width:1.0;" x1="282" x2="282" y1="219.1738" y2="232.1289"/><line style="stroke:#A80036;stroke-width:1.0;" x1="334" x2="334" y1="219.1738" y2="232.1289"/><line style="stroke:#000000;stroke-width:1.0;" x1="0" x2="5" y1="250.6064" y2="250.6064"/><line style="stroke:#000000;stroke-width:1.0;" x1="68" x2="363" y1="250.6064" y2="250.6064"/><rect fill="#FEFECE" height="12.9551" style="stroke:none;stroke-width:1.0;" width="80" x="226" y="269.084"/><line style="stroke:#A80036;stroke-width:1.0;" x1="226" x2="306" y1="269.084" y2="269.084"/><line style="stroke:#A80036;stroke-width:1.0;" x1="226" x2="306" y1="282.0391" y2="282.0391"/><line style="stroke:#A80036;stroke-width:1.0;" x1="226" x2="226" y1="269.084" y2="282.0391"/><line style="stroke:#A80036;stroke-width:1.0;" x1="306" x2="306" y1="269.084" y2="282.0391"/><rect fill="#FEFECE" height="12.9551" style="stroke:none;stroke-width:1.0;" width="24" x="310" y="286.0391"/><line style="stroke:#A80036;stroke-width:1.0;" x1="310" x2="334" y1="286.0391" y2="286.0391"/><line style="stroke:#A80036;stroke-width:1.0;" x1="310" x2="334" y1="298.9941" y2="298.9941"/><line style="stroke:#A80036;stroke-width:1.0;" x1="310" x2="310" y1="286.0391" y2="298.9941"/><line style="stroke:#A80036;stroke-width:1.0;" x1="334" x2="334" y1="286.0391" y2="298.9941"/><text fill="#000000" font-family="sans-serif" font-size="11" lengthAdjust="spacing" textLength="53" x="10" y="87.123">SAE S2.05</text><text fill="#000000" font-family="sans-serif" font-size="11" lengthAdjust="spacing" textLength="45" x="6" y="112.0781">Liv. CDC</text><text fill="#000000" font-family="sans-serif" font-size="11" lengthAdjust="spacing" textLength="67" x="170" y="129.0332">Liv. Doc Tec.</text><text fill="#000000" font-family="sans-serif" font-size="11" lengthAdjust="spacing" textLength="76" x="338" y="145.9883">Liv. Doc Finale</text><text fill="#000000" font-family="sans-serif" font-size="11" lengthAdjust="spacing" textLength="114" x="366" y="162.9434">Soutenances/Anglais</text><text fill="#000000" font-family="sans-serif" font-size="11" lengthAdjust="spacing" textLength="53" x="10" y="187.8984">SAE S2.04</text><text fill="#000000" font-family="sans-serif" font-size="11" lengthAdjust="spacing" textLength="63" x="90" y="212.8535">Création BD</text><text fill="#000000" font-family="sans-serif" font-size="11" lengthAdjust="spacing" textLength="62" x="338" y="229.8086">Visulisation</text><text fill="#000000" font-family="sans-serif" font-size="11" lengthAdjust="spacing" textLength="53" x="10" y="254.7637">SAE S2.01</text><text fill="#000000" font-family="sans-serif" font-size="11" lengthAdjust="spacing" textLength="48" x="230" y="279.7188">Dev. App</text><text fill="#000000" font-family="sans-serif" font-size="11" lengthAdjust="spacing" textLength="51" x="338" y="296.6738">Doc. Eval.</text><line style="stroke:#C0C0C0;stroke-width:1.0;" x1="0" x2="364" y1="300.9941" y2="300.9941"/><line style="stroke:#C0C0C0;stroke-width:1.0;" x1="0" x2="0" y1="300.9941" y2="316.9941"/><line style="stroke:#C0C0C0;stroke-width:1.0;" x1="72" x2="72" y1="300.9941" y2="316.9941"/><text fill="#000000" font-family="Serif" font-size="12" font-weight="bold" lengthAdjust="spacing" textLength="49" x="11.5" y="309.9941">Mar 2022</text><line style="stroke:#C0C0C0;stroke-width:1.0;" x1="192" x2="192" y1="300.9941" y2="316.9941"/><text fill="#000000" font-family="Serif" font-size="12" font-weight="bold" lengthAdjust="spacing" textLength="48" x="108" y="309.9941">Apr 2022</text><line style="stroke:#C0C0C0;stroke-width:1.0;" x1="316" x2="316" y1="300.9941" y2="316.9941"/><text fill="#000000" font-family="Serif" font-size="12" font-weight="bold" lengthAdjust="spacing" textLength="50" x="229" y="309.9941">May 2022</text><line style="stroke:#C0C0C0;stroke-width:1.0;" x1="364" x2="364" y1="300.9941" y2="316.9941"/><text fill="#000000" font-family="Serif" font-size="12" font-weight="bold" lengthAdjust="spacing" textLength="47" x="316.5" y="309.9941">Jun 2022</text><line style="stroke:#C0C0C0;stroke-width:1.0;" x1="0" x2="364" y1="316.9941" y2="316.9941"/><!--MD5=[afef03bb0b1e33de97d0dd2aa21b6141]
@startgantt

title SAE S2.01/04/05

printscale weekly

Project starts the 14th of March 2022


- - SAE S2.05 - -

[Liv. CDC] lasts 3 weeks

[Liv. Doc Tec.] starts the 18th of April 2022 
[Liv. Doc Tec.] lasts 1 week

[Liv. Doc Finale] lasts 1 week
[Liv. Doc Finale] starts the 30th of May 2022

[Soutenances/Anglais] lasts 1 week
[Soutenances/Anglais] starts the 6th of June 2022

[Liv. CDC] -> [Liv. Doc Tec.] 
[Liv. Doc Tec.] -> [Liv. Doc Finale]
[Liv. Doc Finale] -> [Soutenances/Anglais]

- - SAE S2.04 - -

[Création BD] lasts 3 weeks
[Création BD] starts the 4h of April 2022

[Visulisation] starts the 23th of May 2022
[Visulisation] lasts 2 weeks

[Liv. CDC] -> [Création BD] 
[Création BD] -> [Visulisation]

- - SAE S2.01 - -

[Dev. App] starts the 9th of May 2022
[Dev. App] lasts 3 weeks
[Doc. Eval.] lasts 1 week

[Création BD] -> [Dev. App]
[Dev. App] -> [Doc. Eval.] 


@endgantt

PlantUML version 1.2021.7(Sun May 23 14:40:07 CEST 2021)
(GPL source distribution)
Java Runtime: OpenJDK Runtime Environment
JVM: OpenJDK 64-Bit Server VM
Default Encoding: UTF-8
Language: fr
Country: FR
--></g></svg>